<svg width="1439" height="862" viewBox="0 0 1439 862" fill="none" xmlns="http://www.w3.org/2000/svg">
<g clip-path="url(#clip0_20_2)">
<rect width="1439" height="861.972" fill="#0E0D0D"/>
<g opacity="0.1">
<mask id="path-1-inside-1_20_2" fill="white">
<path d="M-45 -79H209.917V175.917H-45V-79Z"/>
</mask>
<path d="M-45 -79H209.917V175.917H-45V-79Z" fill="url(#paint0_linear_20_2)"/>
<path d="M209.917 175.917V177.349H211.349V175.917H209.917ZM208.485 -79V175.917H211.349V-79H208.485ZM209.917 174.485H-45V177.349H209.917V174.485Z" fill="#52525B" mask="url(#path-1-inside-1_20_2)"/>
<mask id="path-3-inside-2_20_2" fill="white">
<path d="M209.917 -79H464.833V175.917H209.917V-79Z"/>
</mask>
<path d="M209.917 -79H464.833V175.917H209.917V-79Z" fill="url(#paint1_linear_20_2)"/>
<path d="M464.833 175.917V177.349H466.265V175.917H464.833ZM463.401 -79V175.917H466.265V-79H463.401ZM464.833 174.485H209.917V177.349H464.833V174.485Z" fill="#52525B" mask="url(#path-3-inside-2_20_2)"/>
<mask id="path-5-inside-3_20_2" fill="white">
<path d="M464.833 -79H719.75V175.917H464.833V-79Z"/>
</mask>
<path d="M464.833 -79H719.75V175.917H464.833V-79Z" fill="url(#paint2_linear_20_2)"/>
<path d="M719.75 175.917V177.349H721.182V175.917H719.75ZM718.318 -79V175.917H721.182V-79H718.318ZM719.75 174.485H464.833V177.349H719.75V174.485Z" fill="#52525B" mask="url(#path-5-inside-3_20_2)"/>
<mask id="path-7-inside-4_20_2" fill="white">
<path d="M719.75 -79H974.667V175.917H719.75V-79Z"/>
</mask>
<path d="M719.75 -79H974.667V175.917H719.75V-79Z" fill="url(#paint3_linear_20_2)"/>
<path d="M974.667 175.917V177.349H976.099V175.917H974.667ZM973.235 -79V175.917H976.099V-79H973.235ZM974.667 174.485H719.75V177.349H974.667V174.485Z" fill="#52525B" mask="url(#path-7-inside-4_20_2)"/>
<mask id="path-9-inside-5_20_2" fill="white">
<path d="M974.667 -79H1229.58V175.917H974.667V-79Z"/>
</mask>
<path d="M974.667 -79H1229.58V175.917H974.667V-79Z" fill="url(#paint4_linear_20_2)"/>
<path d="M1229.58 175.917V177.349H1231.02V175.917H1229.58ZM1228.15 -79V175.917H1231.02V-79H1228.15ZM1229.58 174.485H974.667V177.349H1229.58V174.485Z" fill="#52525B" mask="url(#path-9-inside-5_20_2)"/>
<mask id="path-11-inside-6_20_2" fill="white">
<path d="M1229.58 -79H1484.5V175.917H1229.58V-79Z"/>
</mask>
<path d="M1229.58 -79H1484.5V175.917H1229.58V-79Z" fill="url(#paint5_linear_20_2)"/>
<path d="M1484.5 175.917V177.349H1485.93V175.917H1484.5ZM1483.07 -79V175.917H1485.93V-79H1483.07ZM1484.5 174.485H1229.58V177.349H1484.5V174.485Z" fill="#52525B" mask="url(#path-11-inside-6_20_2)"/>
<mask id="path-13-inside-7_20_2" fill="white">
<path d="M-45 175.917H209.917V430.833H-45V175.917Z"/>
</mask>
<path d="M-45 175.917H209.917V430.833H-45V175.917Z" fill="url(#paint6_linear_20_2)"/>
<path d="M209.917 430.833V432.266H211.349V430.833H209.917ZM208.485 175.917V430.833H211.349V175.917H208.485ZM209.917 429.401H-45V432.266H209.917V429.401Z" fill="#52525B" mask="url(#path-13-inside-7_20_2)"/>
<mask id="path-15-inside-8_20_2" fill="white">
<path d="M209.917 175.917H464.833V430.833H209.917V175.917Z"/>
</mask>
<path d="M209.917 175.917H464.833V430.833H209.917V175.917Z" fill="url(#paint7_linear_20_2)"/>
<path d="M464.833 430.833V432.266H466.265V430.833H464.833ZM463.401 175.917V430.833H466.265V175.917H463.401ZM464.833 429.401H209.917V432.266H464.833V429.401Z" fill="#52525B" mask="url(#path-15-inside-8_20_2)"/>
<mask id="path-17-inside-9_20_2" fill="white">
<path d="M464.833 175.917H719.75V430.833H464.833V175.917Z"/>
</mask>
<path d="M464.833 175.917H719.75V430.833H464.833V175.917Z" fill="url(#paint8_linear_20_2)"/>
<path d="M719.75 430.833V432.266H721.182V430.833H719.75ZM718.318 175.917V430.833H721.182V175.917H718.318ZM719.75 429.401H464.833V432.266H719.75V429.401Z" fill="#52525B" mask="url(#path-17-inside-9_20_2)"/>
<mask id="path-19-inside-10_20_2" fill="white">
<path d="M719.75 175.917H974.667V430.833H719.75V175.917Z"/>
</mask>
<path d="M719.75 175.917H974.667V430.833H719.75V175.917Z" fill="url(#paint9_linear_20_2)"/>
<path d="M974.667 430.833V432.266H976.099V430.833H974.667ZM973.235 175.917V430.833H976.099V175.917H973.235ZM974.667 429.401H719.75V432.266H974.667V429.401Z" fill="#52525B" mask="url(#path-19-inside-10_20_2)"/>
<mask id="path-21-inside-11_20_2" fill="white">
<path d="M974.667 175.917H1229.58V430.833H974.667V175.917Z"/>
</mask>
<path d="M974.667 175.917H1229.58V430.833H974.667V175.917Z" fill="url(#paint10_linear_20_2)"/>
<path d="M1229.58 430.833V432.266H1231.02V430.833H1229.58ZM1228.15 175.917V430.833H1231.02V175.917H1228.15ZM1229.58 429.401H974.667V432.266H1229.58V429.401Z" fill="#52525B" mask="url(#path-21-inside-11_20_2)"/>
<mask id="path-23-inside-12_20_2" fill="white">
<path d="M1229.58 175.917H1484.5V430.833H1229.58V175.917Z"/>
</mask>
<path d="M1229.58 175.917H1484.5V430.833H1229.58V175.917Z" fill="url(#paint11_linear_20_2)"/>
<path d="M1484.5 430.833V432.266H1485.93V430.833H1484.5ZM1483.07 175.917V430.833H1485.93V175.917H1483.07ZM1484.5 429.401H1229.58V432.266H1484.5V429.401Z" fill="#52525B" mask="url(#path-23-inside-12_20_2)"/>
<mask id="path-25-inside-13_20_2" fill="white">
<path d="M-45 430.833H209.917V685.75H-45V430.833Z"/>
</mask>
<path d="M-45 430.833H209.917V685.75H-45V430.833Z" fill="url(#paint12_linear_20_2)"/>
<path d="M209.917 685.75V687.182H211.349V685.75H209.917ZM208.485 430.833V685.75H211.349V430.833H208.485ZM209.917 684.318H-45V687.182H209.917V684.318Z" fill="#52525B" mask="url(#path-25-inside-13_20_2)"/>
<mask id="path-27-inside-14_20_2" fill="white">
<path d="M209.917 430.833H464.833V685.75H209.917V430.833Z"/>
</mask>
<path d="M209.917 430.833H464.833V685.75H209.917V430.833Z" fill="url(#paint13_linear_20_2)"/>
<path d="M464.833 685.75V687.182H466.265V685.75H464.833ZM463.401 430.833V685.75H466.265V430.833H463.401ZM464.833 684.318H209.917V687.182H464.833V684.318Z" fill="#52525B" mask="url(#path-27-inside-14_20_2)"/>
<mask id="path-29-inside-15_20_2" fill="white">
<path d="M464.833 430.833H719.75V685.75H464.833V430.833Z"/>
</mask>
<path d="M464.833 430.833H719.75V685.75H464.833V430.833Z" fill="url(#paint14_linear_20_2)"/>
<path d="M719.75 685.75V687.182H721.182V685.75H719.75ZM718.318 430.833V685.75H721.182V430.833H718.318ZM719.75 684.318H464.833V687.182H719.75V684.318Z" fill="#52525B" mask="url(#path-29-inside-15_20_2)"/>
<mask id="path-31-inside-16_20_2" fill="white">
<path d="M719.75 430.833H974.667V685.75H719.75V430.833Z"/>
</mask>
<path d="M719.75 430.833H974.667V685.75H719.75V430.833Z" fill="url(#paint15_linear_20_2)"/>
<path d="M974.667 685.75V687.182H976.099V685.75H974.667ZM973.235 430.833V685.75H976.099V430.833H973.235ZM974.667 684.318H719.75V687.182H974.667V684.318Z" fill="#52525B" mask="url(#path-31-inside-16_20_2)"/>
<mask id="path-33-inside-17_20_2" fill="white">
<path d="M974.667 430.833H1229.58V685.75H974.667V430.833Z"/>
</mask>
<path d="M974.667 430.833H1229.58V685.75H974.667V430.833Z" fill="url(#paint16_linear_20_2)"/>
<path d="M1229.58 685.75V687.182H1231.02V685.75H1229.58ZM1228.15 430.833V685.75H1231.02V430.833H1228.15ZM1229.58 684.318H974.667V687.182H1229.58V684.318Z" fill="#52525B" mask="url(#path-33-inside-17_20_2)"/>
<mask id="path-35-inside-18_20_2" fill="white">
<path d="M1229.58 430.833H1484.5V685.75H1229.58V430.833Z"/>
</mask>
<path d="M1229.58 430.833H1484.5V685.75H1229.58V430.833Z" fill="url(#paint17_linear_20_2)"/>
<path d="M1484.5 685.75V687.182H1485.93V685.75H1484.5ZM1483.07 430.833V685.75H1485.93V430.833H1483.07ZM1484.5 684.318H1229.58V687.182H1484.5V684.318Z" fill="#52525B" mask="url(#path-35-inside-18_20_2)"/>
<mask id="path-37-inside-19_20_2" fill="white">
<path d="M-45 685.75H209.917V940.667H-45V685.75Z"/>
</mask>
<path d="M-45 685.75H209.917V940.667H-45V685.75Z" fill="url(#paint18_linear_20_2)"/>
<path d="M209.917 940.667V942.099H211.349V940.667H209.917ZM208.485 685.75V940.667H211.349V685.75H208.485ZM209.917 939.235H-45V942.099H209.917V939.235Z" fill="#52525B" mask="url(#path-37-inside-19_20_2)"/>
<mask id="path-39-inside-20_20_2" fill="white">
<path d="M209.917 685.75H464.833V940.667H209.917V685.75Z"/>
</mask>
<path d="M209.917 685.75H464.833V940.667H209.917V685.75Z" fill="url(#paint19_linear_20_2)"/>
<path d="M464.833 940.667V942.099H466.265V940.667H464.833ZM463.401 685.75V940.667H466.265V685.75H463.401ZM464.833 939.235H209.917V942.099H464.833V939.235Z" fill="#52525B" mask="url(#path-39-inside-20_20_2)"/>
<mask id="path-41-inside-21_20_2" fill="white">
<path d="M464.833 685.75H719.75V940.667H464.833V685.75Z"/>
</mask>
<path d="M464.833 685.75H719.75V940.667H464.833V685.75Z" fill="url(#paint20_linear_20_2)"/>
<path d="M719.75 940.667V942.099H721.182V940.667H719.75ZM718.318 685.75V940.667H721.182V685.75H718.318ZM719.75 939.235H464.833V942.099H719.75V939.235Z" fill="#52525B" mask="url(#path-41-inside-21_20_2)"/>
<mask id="path-43-inside-22_20_2" fill="white">
<path d="M719.75 685.75H974.667V940.667H719.75V685.75Z"/>
</mask>
<path d="M719.75 685.75H974.667V940.667H719.75V685.75Z" fill="url(#paint21_linear_20_2)"/>
<path d="M974.667 940.667V942.099H976.099V940.667H974.667ZM973.235 685.75V940.667H976.099V685.75H973.235ZM974.667 939.235H719.75V942.099H974.667V939.235Z" fill="#52525B" mask="url(#path-43-inside-22_20_2)"/>
<mask id="path-45-inside-23_20_2" fill="white">
<path d="M974.667 685.75H1229.58V940.667H974.667V685.75Z"/>
</mask>
<path d="M974.667 685.75H1229.58V940.667H974.667V685.75Z" fill="url(#paint22_linear_20_2)"/>
<path d="M1229.58 940.667V942.099H1231.02V940.667H1229.58ZM1228.15 685.75V940.667H1231.02V685.75H1228.15ZM1229.58 939.235H974.667V942.099H1229.58V939.235Z" fill="#52525B" mask="url(#path-45-inside-23_20_2)"/>
<mask id="path-47-inside-24_20_2" fill="white">
<path d="M1229.58 685.75H1484.5V940.667H1229.58V685.75Z"/>
</mask>
<path d="M1229.58 685.75H1484.5V940.667H1229.58V685.75Z" fill="url(#paint23_linear_20_2)"/>
<path d="M1484.5 940.667V942.099H1485.93V940.667H1484.5ZM1483.07 685.75V940.667H1485.93V685.75H1483.07ZM1484.5 939.235H1229.58V942.099H1484.5V939.235Z" fill="#52525B" mask="url(#path-47-inside-24_20_2)"/>
</g>
<g opacity="0.8">
<g opacity="0.23" filter="url(#filter0_f_20_2)">
<path d="M830.376 -619L1014.95 -498.459L321.571 563.229C321.571 563.229 469.376 194.407 430.333 181.105C391.29 167.802 137 442.687 137 442.687L830.376 -619Z" fill="url(#paint24_linear_20_2)"/>
</g>
<g opacity="0.23" filter="url(#filter1_f_20_2)">
<path d="M1241.44 -600.338L1437.3 -472.427L743.922 589.26C743.922 589.26 887.738 217.834 846.65 203.195C805.561 188.557 548.067 461.349 548.067 461.349L1241.44 -600.338Z" fill="url(#paint25_linear_20_2)"/>
</g>
</g>
</g>
<defs>
<filter id="filter0_f_20_2" x="-2.99982" y="-759" width="1157.95" height="1462.23" filterUnits="userSpaceOnUse" color-interpolation-filters="sRGB">
<feFlood flood-opacity="0" result="BackgroundImageFix"/>
<feBlend mode="normal" in="SourceGraphic" in2="BackgroundImageFix" result="shape"/>
<feGaussianBlur stdDeviation="70" result="effect1_foregroundBlur_20_2"/>
</filter>
<filter id="filter1_f_20_2" x="408.067" y="-740.338" width="1169.23" height="1469.6" filterUnits="userSpaceOnUse" color-interpolation-filters="sRGB">
<feFlood flood-opacity="0" result="BackgroundImageFix"/>
<feBlend mode="normal" in="SourceGraphic" in2="BackgroundImageFix" result="shape"/>
<feGaussianBlur stdDeviation="70" result="effect1_foregroundBlur_20_2"/>
</filter>
<linearGradient id="paint0_linear_20_2" x1="82.4583" y1="-79" x2="82.4583" y2="175.917" gradientUnits="userSpaceOnUse">
<stop/>
<stop offset="1" stop-color="#95959C" stop-opacity="0"/>
</linearGradient>
<linearGradient id="paint1_linear_20_2" x1="337.375" y1="-79" x2="337.375" y2="175.917" gradientUnits="userSpaceOnUse">
<stop stop-color="#252525"/>
<stop offset="1" stop-color="#616169" stop-opacity="0"/>
</linearGradient>
<linearGradient id="paint2_linear_20_2" x1="592.292" y1="-79" x2="592.292" y2="175.917" gradientUnits="userSpaceOnUse">
<stop/>
<stop offset="1" stop-color="#95959C" stop-opacity="0"/>
</linearGradient>
<linearGradient id="paint3_linear_20_2" x1="847.208" y1="-79" x2="847.208" y2="175.917" gradientUnits="userSpaceOnUse">
<stop stop-color="#252525"/>
<stop offset="1" stop-color="#616169" stop-opacity="0"/>
</linearGradient>
<linearGradient id="paint4_linear_20_2" x1="1102.12" y1="-79" x2="1102.12" y2="175.917" gradientUnits="userSpaceOnUse">
<stop/>
<stop offset="1" stop-color="#95959C" stop-opacity="0"/>
</linearGradient>
<linearGradient id="paint5_linear_20_2" x1="1357.04" y1="-79" x2="1357.04" y2="175.917" gradientUnits="userSpaceOnUse">
<stop stop-color="#252525"/>
<stop offset="1" stop-color="#616169" stop-opacity="0"/>
</linearGradient>
<linearGradient id="paint6_linear_20_2" x1="82.4583" y1="175.917" x2="82.4583" y2="430.833" gradientUnits="userSpaceOnUse">
<stop stop-color="#252525"/>
<stop offset="1" stop-color="#616169" stop-opacity="0"/>
</linearGradient>
<linearGradient id="paint7_linear_20_2" x1="337.375" y1="175.917" x2="337.375" y2="430.833" gradientUnits="userSpaceOnUse">
<stop/>
<stop offset="1" stop-color="#95959C" stop-opacity="0"/>
</linearGradient>
<linearGradient id="paint8_linear_20_2" x1="592.292" y1="175.917" x2="592.292" y2="430.833" gradientUnits="userSpaceOnUse">
<stop stop-color="#252525"/>
<stop offset="1" stop-color="#616169" stop-opacity="0"/>
</linearGradient>
<linearGradient id="paint9_linear_20_2" x1="847.208" y1="175.917" x2="847.208" y2="430.833" gradientUnits="userSpaceOnUse">
<stop/>
<stop offset="1" stop-color="#95959C" stop-opacity="0"/>
</linearGradient>
<linearGradient id="paint10_linear_20_2" x1="1102.12" y1="175.917" x2="1102.12" y2="430.833" gradientUnits="userSpaceOnUse">
<stop stop-color="#252525"/>
<stop offset="1" stop-color="#616169" stop-opacity="0"/>
</linearGradient>
<linearGradient id="paint11_linear_20_2" x1="1357.04" y1="175.917" x2="1357.04" y2="430.833" gradientUnits="userSpaceOnUse">
<stop/>
<stop offset="1" stop-color="#95959C" stop-opacity="0"/>
</linearGradient>
<linearGradient id="paint12_linear_20_2" x1="82.4583" y1="430.833" x2="82.4583" y2="685.75" gradientUnits="userSpaceOnUse">
<stop/>
<stop offset="1" stop-color="#95959C" stop-opacity="0"/>
</linearGradient>
<linearGradient id="paint13_linear_20_2" x1="337.375" y1="430.833" x2="337.375" y2="685.75" gradientUnits="userSpaceOnUse">
<stop stop-color="#252525"/>
<stop offset="1" stop-color="#616169" stop-opacity="0"/>
</linearGradient>
<linearGradient id="paint14_linear_20_2" x1="592.292" y1="430.833" x2="592.292" y2="685.75" gradientUnits="userSpaceOnUse">
<stop/>
<stop offset="1" stop-color="#95959C" stop-opacity="0"/>
</linearGradient>
<linearGradient id="paint15_linear_20_2" x1="847.208" y1="430.833" x2="847.208" y2="685.75" gradientUnits="userSpaceOnUse">
<stop stop-color="#252525"/>
<stop offset="1" stop-color="#616169" stop-opacity="0"/>
</linearGradient>
<linearGradient id="paint16_linear_20_2" x1="1102.12" y1="430.833" x2="1102.12" y2="685.75" gradientUnits="userSpaceOnUse">
<stop/>
<stop offset="1" stop-color="#95959C" stop-opacity="0"/>
</linearGradient>
<linearGradient id="paint17_linear_20_2" x1="1357.04" y1="430.833" x2="1357.04" y2="685.75" gradientUnits="userSpaceOnUse">
<stop stop-color="#252525"/>
<stop offset="1" stop-color="#616169" stop-opacity="0"/>
</linearGradient>
<linearGradient id="paint18_linear_20_2" x1="82.4583" y1="685.75" x2="82.4583" y2="940.667" gradientUnits="userSpaceOnUse">
<stop stop-color="#252525"/>
<stop offset="1" stop-color="#616169" stop-opacity="0"/>
</linearGradient>
<linearGradient id="paint19_linear_20_2" x1="337.375" y1="685.75" x2="337.375" y2="940.667" gradientUnits="userSpaceOnUse">
<stop/>
<stop offset="1" stop-color="#95959C" stop-opacity="0"/>
</linearGradient>
<linearGradient id="paint20_linear_20_2" x1="592.292" y1="685.75" x2="592.292" y2="940.667" gradientUnits="userSpaceOnUse">
<stop stop-color="#252525"/>
<stop offset="1" stop-color="#616169" stop-opacity="0"/>
</linearGradient>
<linearGradient id="paint21_linear_20_2" x1="847.208" y1="685.75" x2="847.208" y2="940.667" gradientUnits="userSpaceOnUse">
<stop/>
<stop offset="1" stop-color="#95959C" stop-opacity="0"/>
</linearGradient>
<linearGradient id="paint22_linear_20_2" x1="1102.12" y1="685.75" x2="1102.12" y2="940.667" gradientUnits="userSpaceOnUse">
<stop stop-color="#252525"/>
<stop offset="1" stop-color="#616169" stop-opacity="0"/>
</linearGradient>
<linearGradient id="paint23_linear_20_2" x1="1357.04" y1="685.75" x2="1357.04" y2="940.667" gradientUnits="userSpaceOnUse">
<stop/>
<stop offset="1" stop-color="#95959C" stop-opacity="0"/>
</linearGradient>
<linearGradient id="paint24_linear_20_2" x1="922.662" y1="-558.729" x2="93.2731" y2="711.219" gradientUnits="userSpaceOnUse">
<stop stop-color="white"/>
<stop offset="1" stop-color="white" stop-opacity="0"/>
</linearGradient>
<linearGradient id="paint25_linear_20_2" x1="1339.37" y1="-536.382" x2="509.982" y2="733.566" gradientUnits="userSpaceOnUse">
<stop stop-color="white"/>
<stop offset="1" stop-color="white" stop-opacity="0"/>
</linearGradient>
<clipPath id="clip0_20_2">
<rect width="1439" height="861.972" fill="white"/>
</clipPath>
</defs>
</svg>
