<svg width="544" height="126" viewBox="0 0 544 126" fill="none" xmlns="http://www.w3.org/2000/svg">
<mask id="mask0_22_66" style="mask-type:alpha" maskUnits="userSpaceOnUse" x="3" y="12" width="538" height="113">
<path d="M23.0169 50H9.6106V12.1818H23.1276C26.9316 12.1818 30.2062 12.9389 32.9515 14.4531C35.6968 15.955 37.808 18.1155 39.2853 20.9347C40.7749 23.7538 41.5197 27.1269 41.5197 31.054C41.5197 34.9934 40.7749 38.3788 39.2853 41.2102C37.808 44.0417 35.6845 46.2145 32.9146 47.7287C30.157 49.2429 26.8578 50 23.0169 50ZM17.6063 43.1491H22.6845C25.0481 43.1491 27.0363 42.7306 28.649 41.8935C30.274 41.044 31.4927 39.733 32.3052 37.9602C33.13 36.1752 33.5424 33.8731 33.5424 31.054C33.5424 28.2595 33.13 25.9759 32.3052 24.2031C31.4927 22.4304 30.2801 21.1255 28.6674 20.2884C27.0547 19.4512 25.0666 19.0327 22.7029 19.0327H17.6063V43.1491ZM63.861 50.554C60.9434 50.554 58.4321 49.9631 56.327 48.7812C54.2341 47.5871 52.6215 45.9006 51.4889 43.7216C50.3563 41.5303 49.79 38.9389 49.79 35.9474C49.79 33.0298 50.3563 30.4692 51.4889 28.2656C52.6215 26.062 54.2157 24.3447 56.2716 23.1136C58.3397 21.8826 60.7649 21.267 63.5471 21.267C65.4183 21.267 67.1603 21.5687 68.773 22.1719C70.398 22.7628 71.8137 23.6553 73.0201 24.8494C74.2389 26.0436 75.1868 27.5455 75.8639 29.3551C76.541 31.1525 76.8795 33.2576 76.8795 35.6705V37.831H52.9292V32.956H69.4747C69.4747 31.8234 69.2285 30.8201 68.736 29.946C68.2436 29.072 67.5604 28.3887 66.6863 27.8963C65.8246 27.3916 64.8213 27.1392 63.6764 27.1392C62.4823 27.1392 61.4235 27.4162 60.5002 27.9702C59.5893 28.5118 58.8752 29.2443 58.3582 30.1676C57.8412 31.0786 57.5765 32.0942 57.5642 33.2145V37.8494C57.5642 39.2528 57.8227 40.4654 58.3397 41.4872C58.8691 42.509 59.6139 43.2969 60.5741 43.8509C61.5343 44.4048 62.6731 44.6818 63.9903 44.6818C64.8644 44.6818 65.6645 44.5587 66.3909 44.3125C67.1172 44.0663 67.7389 43.697 68.2559 43.2045C68.773 42.7121 69.1669 42.1089 69.4377 41.3949L76.7133 41.875C76.344 43.6231 75.5869 45.1496 74.442 46.4545C73.3094 47.7472 71.8445 48.7566 70.0471 49.483C68.2621 50.197 66.2001 50.554 63.861 50.554ZM111.334 21.6364L101.418 50H92.5547L82.6385 21.6364H90.9481L96.8388 41.9304H97.1342L103.006 21.6364H111.334ZM131.012 50.554C128.095 50.554 125.583 49.9631 123.478 48.7812C121.385 47.5871 119.773 45.9006 118.64 43.7216C117.507 41.5303 116.941 38.9389 116.941 35.9474C116.941 33.0298 117.507 30.4692 118.64 28.2656C119.773 26.062 121.367 24.3447 123.423 23.1136C125.491 21.8826 127.916 21.267 130.698 21.267C132.569 21.267 134.311 21.5687 135.924 22.1719C137.549 22.7628 138.965 23.6553 140.171 24.8494C141.39 26.0436 142.338 27.5455 143.015 29.3551C143.692 31.1525 144.031 33.2576 144.031 35.6705V37.831H120.08V32.956H136.626C136.626 31.8234 136.38 30.8201 135.887 29.946C135.395 29.072 134.711 28.3887 133.837 27.8963C132.976 27.3916 131.972 27.1392 130.827 27.1392C129.633 27.1392 128.575 27.4162 127.651 27.9702C126.74 28.5118 126.026 29.2443 125.509 30.1676C124.992 31.0786 124.728 32.0942 124.715 33.2145V37.8494C124.715 39.2528 124.974 40.4654 125.491 41.4872C126.02 42.509 126.765 43.2969 127.725 43.8509C128.685 44.4048 129.824 44.6818 131.141 44.6818C132.015 44.6818 132.816 44.5587 133.542 44.3125C134.268 44.0663 134.89 43.697 135.407 43.2045C135.924 42.7121 136.318 42.1089 136.589 41.3949L143.864 41.875C143.495 43.6231 142.738 45.1496 141.593 46.4545C140.461 47.7472 138.996 48.7566 137.198 49.483C135.413 50.197 133.351 50.554 131.012 50.554ZM160.671 12.1818V50H152.804V12.1818H160.671ZM183.427 50.554C180.559 50.554 178.078 49.9446 175.986 48.7259C173.905 47.4948 172.299 45.7836 171.166 43.5923C170.033 41.3887 169.467 38.8343 169.467 35.929C169.467 32.9991 170.033 30.4384 171.166 28.2472C172.299 26.0436 173.905 24.3324 175.986 23.1136C178.078 21.8826 180.559 21.267 183.427 21.267C186.296 21.267 188.77 21.8826 190.851 23.1136C192.944 24.3324 194.556 26.0436 195.689 28.2472C196.821 30.4384 197.388 32.9991 197.388 35.929C197.388 38.8343 196.821 41.3887 195.689 43.5923C194.556 45.7836 192.944 47.4948 190.851 48.7259C188.77 49.9446 186.296 50.554 183.427 50.554ZM183.464 44.4602C184.769 44.4602 185.859 44.0909 186.733 43.3523C187.607 42.6013 188.265 41.5795 188.709 40.2869C189.164 38.9943 189.392 37.5232 189.392 35.8736C189.392 34.224 189.164 32.7528 188.709 31.4602C188.265 30.1676 187.607 29.1458 186.733 28.3949C185.859 27.6439 184.769 27.2685 183.464 27.2685C182.147 27.2685 181.039 27.6439 180.14 28.3949C179.254 29.1458 178.583 30.1676 178.128 31.4602C177.685 32.7528 177.463 34.224 177.463 35.8736C177.463 37.5232 177.685 38.9943 178.128 40.2869C178.583 41.5795 179.254 42.6013 180.14 43.3523C181.039 44.0909 182.147 44.4602 183.464 44.4602ZM206.143 60.6364V21.6364H213.898V26.4006H214.249C214.594 25.6373 215.093 24.8617 215.745 24.0739C216.41 23.2737 217.272 22.6089 218.33 22.0795C219.401 21.5379 220.731 21.267 222.319 21.267C224.387 21.267 226.295 21.8087 228.043 22.892C229.791 23.9631 231.189 25.5819 232.235 27.7486C233.281 29.9029 233.805 32.6051 233.805 35.8551C233.805 39.0189 233.294 41.6903 232.272 43.8693C231.263 46.036 229.884 47.6795 228.136 48.7997C226.4 49.9077 224.455 50.4616 222.3 50.4616C220.774 50.4616 219.475 50.2093 218.404 49.7045C217.345 49.1998 216.477 48.5658 215.8 47.8026C215.123 47.027 214.606 46.2453 214.249 45.4574H214.009V60.6364H206.143ZM213.843 35.8182C213.843 37.5047 214.077 38.9759 214.545 40.2315C215.013 41.4872 215.69 42.4659 216.576 43.1676C217.462 43.857 218.539 44.2017 219.807 44.2017C221.088 44.2017 222.171 43.8509 223.057 43.1491C223.944 42.4351 224.615 41.4503 225.07 40.1946C225.538 38.9266 225.772 37.4678 225.772 35.8182C225.772 34.1809 225.544 32.7405 225.089 31.4972C224.633 30.2538 223.962 29.2812 223.076 28.5795C222.19 27.8778 221.1 27.527 219.807 27.527C218.527 27.527 217.444 27.8655 216.557 28.5426C215.683 29.2197 215.013 30.1799 214.545 31.4233C214.077 32.6667 213.843 34.1316 213.843 35.8182ZM255.615 50.554C252.697 50.554 250.186 49.9631 248.081 48.7812C245.988 47.5871 244.376 45.9006 243.243 43.7216C242.11 41.5303 241.544 38.9389 241.544 35.9474C241.544 33.0298 242.11 30.4692 243.243 28.2656C244.376 26.062 245.97 24.3447 248.026 23.1136C250.094 21.8826 252.519 21.267 255.301 21.267C257.172 21.267 258.914 21.5687 260.527 22.1719C262.152 22.7628 263.568 23.6553 264.774 24.8494C265.993 26.0436 266.941 27.5455 267.618 29.3551C268.295 31.1525 268.634 33.2576 268.634 35.6705V37.831H244.683V32.956H261.229C261.229 31.8234 260.983 30.8201 260.49 29.946C259.998 29.072 259.314 28.3887 258.44 27.8963C257.579 27.3916 256.575 27.1392 255.43 27.1392C254.236 27.1392 253.178 27.4162 252.254 27.9702C251.343 28.5118 250.629 29.2443 250.112 30.1676C249.595 31.0786 249.331 32.0942 249.318 33.2145V37.8494C249.318 39.2528 249.577 40.4654 250.094 41.4872C250.623 42.509 251.368 43.2969 252.328 43.8509C253.288 44.4048 254.427 44.6818 255.744 44.6818C256.618 44.6818 257.419 44.5587 258.145 44.3125C258.871 44.0663 259.493 43.697 260.01 43.2045C260.527 42.7121 260.921 42.1089 261.192 41.3949L268.467 41.875C268.098 43.6231 267.341 45.1496 266.196 46.4545C265.063 47.7472 263.599 48.7566 261.801 49.483C260.016 50.197 257.954 50.554 255.615 50.554ZM277.407 50V21.6364H285.034V26.5852H285.329C285.846 24.8248 286.714 23.4953 287.933 22.5966C289.151 21.6856 290.555 21.2301 292.143 21.2301C292.537 21.2301 292.962 21.2547 293.417 21.304C293.873 21.3532 294.273 21.4209 294.617 21.5071V28.4872C294.248 28.3764 293.737 28.2779 293.085 28.1918C292.432 28.1056 291.835 28.0625 291.293 28.0625C290.136 28.0625 289.102 28.3149 288.191 28.8196C287.293 29.312 286.578 30.0014 286.049 30.8878C285.532 31.7741 285.274 32.7959 285.274 33.9531V50H277.407ZM318.147 50V12.1818H333.289C336.072 12.1818 338.392 12.5942 340.251 13.419C342.11 14.2438 343.507 15.3887 344.443 16.8537C345.378 18.3063 345.846 19.9806 345.846 21.8764C345.846 23.3537 345.551 24.6525 344.96 25.7727C344.369 26.8807 343.556 27.7917 342.522 28.5057C341.501 29.2074 340.331 29.706 339.014 30.0014V30.3707C340.454 30.4323 341.802 30.8385 343.058 31.5895C344.326 32.3404 345.354 33.393 346.142 34.7472C346.93 36.089 347.323 37.6894 347.323 39.5483C347.323 41.5549 346.825 43.3461 345.828 44.9219C344.843 46.4853 343.384 47.7225 341.451 48.6335C339.519 49.5445 337.136 50 334.305 50H318.147ZM326.143 43.4631H332.662C334.89 43.4631 336.515 43.0384 337.537 42.1889C338.558 41.3272 339.069 40.1823 339.069 38.7543C339.069 37.7079 338.817 36.7846 338.312 35.9844C337.807 35.1842 337.087 34.5563 336.152 34.1009C335.228 33.6454 334.126 33.4176 332.846 33.4176H326.143V43.4631ZM326.143 28.0071H332.071C333.166 28.0071 334.139 27.8163 334.988 27.4347C335.85 27.0407 336.527 26.4867 337.019 25.7727C337.524 25.0587 337.777 24.2031 337.777 23.206C337.777 21.8395 337.29 20.7377 336.318 19.9006C335.358 19.0634 333.991 18.6449 332.218 18.6449H326.143V28.0071ZM360.875 60.6364C359.878 60.6364 358.942 60.5563 358.068 60.3963C357.206 60.2486 356.492 60.0578 355.926 59.8239L357.699 53.9517C358.622 54.2348 359.453 54.3887 360.192 54.4134C360.943 54.438 361.589 54.2656 362.131 53.8963C362.685 53.527 363.134 52.8991 363.479 52.0128L363.94 50.8125L353.766 21.6364H362.038L367.911 42.4659H368.206L374.134 21.6364H382.462L371.438 53.0653C370.908 54.5919 370.188 55.9214 369.277 57.054C368.378 58.1989 367.24 59.0791 365.861 59.6946C364.482 60.3224 362.82 60.6364 360.875 60.6364ZM416.254 50.4616C414.1 50.4616 412.149 49.9077 410.4 48.7997C408.665 47.6795 407.286 46.036 406.264 43.8693C405.255 41.6903 404.75 39.0189 404.75 35.8551C404.75 32.6051 405.273 29.9029 406.319 27.7486C407.366 25.5819 408.757 23.9631 410.493 22.892C412.241 21.8087 414.155 21.267 416.236 21.267C417.824 21.267 419.147 21.5379 420.206 22.0795C421.277 22.6089 422.139 23.2737 422.791 24.0739C423.456 24.8617 423.961 25.6373 424.305 26.4006H424.545V12.1818H432.393V50H424.638V45.4574H424.305C423.936 46.2453 423.413 47.027 422.736 47.8026C422.071 48.5658 421.203 49.1998 420.132 49.7045C419.073 50.2093 417.781 50.4616 416.254 50.4616ZM418.747 44.2017C420.015 44.2017 421.086 43.857 421.96 43.1676C422.846 42.4659 423.524 41.4872 423.991 40.2315C424.471 38.9759 424.712 37.5047 424.712 35.8182C424.712 34.1316 424.478 32.6667 424.01 31.4233C423.542 30.1799 422.865 29.2197 421.979 28.5426C421.092 27.8655 420.015 27.527 418.747 27.527C417.454 27.527 416.365 27.8778 415.479 28.5795C414.592 29.2812 413.921 30.2538 413.466 31.4972C413.01 32.7405 412.783 34.1809 412.783 35.8182C412.783 37.4678 413.01 38.9266 413.466 40.1946C413.934 41.4503 414.604 42.4351 415.479 43.1491C416.365 43.8509 417.454 44.2017 418.747 44.2017ZM450.589 50.5355C448.779 50.5355 447.167 50.2216 445.751 49.5938C444.335 48.9536 443.215 48.0118 442.39 46.7685C441.578 45.5128 441.171 43.9493 441.171 42.0781C441.171 40.5024 441.461 39.179 442.039 38.108C442.618 37.0369 443.406 36.1752 444.403 35.5227C445.4 34.8703 446.533 34.3778 447.801 34.0455C449.081 33.7131 450.423 33.4792 451.826 33.3438C453.476 33.1714 454.805 33.0114 455.815 32.8636C456.824 32.7036 457.557 32.4697 458.012 32.1619C458.468 31.8542 458.696 31.3987 458.696 30.7955V30.6847C458.696 29.5152 458.326 28.6103 457.588 27.9702C456.861 27.33 455.827 27.0099 454.485 27.0099C453.07 27.0099 451.943 27.3239 451.106 27.9517C450.269 28.5672 449.715 29.3428 449.444 30.2784L442.169 29.6875C442.538 27.964 443.264 26.4744 444.348 25.2188C445.431 23.9508 446.828 22.9782 448.539 22.3011C450.263 21.6117 452.257 21.267 454.522 21.267C456.098 21.267 457.606 21.4517 459.046 21.821C460.499 22.1903 461.786 22.7628 462.906 23.5384C464.038 24.3139 464.931 25.3111 465.583 26.5298C466.236 27.7363 466.562 29.1828 466.562 30.8693V50H459.102V46.0668H458.88C458.425 46.9531 457.815 47.7348 457.052 48.4119C456.289 49.0767 455.372 49.5999 454.301 49.9815C453.23 50.3509 451.992 50.5355 450.589 50.5355ZM452.842 45.1065C453.999 45.1065 455.021 44.8788 455.907 44.4233C456.794 43.9555 457.489 43.3277 457.994 42.5398C458.499 41.7519 458.751 40.8594 458.751 39.8622V36.8523C458.505 37.0123 458.166 37.16 457.735 37.2955C457.317 37.4186 456.843 37.5355 456.313 37.6463C455.784 37.7448 455.255 37.8371 454.725 37.9233C454.196 37.9972 453.716 38.0649 453.285 38.1264C452.362 38.2618 451.555 38.4773 450.866 38.7727C450.177 39.0682 449.641 39.4683 449.26 39.973C448.878 40.4654 448.687 41.081 448.687 41.8196C448.687 42.8906 449.075 43.7093 449.85 44.2756C450.638 44.8295 451.635 45.1065 452.842 45.1065ZM480.146 60.6364C479.149 60.6364 478.213 60.5563 477.339 60.3963C476.477 60.2486 475.763 60.0578 475.197 59.8239L476.97 53.9517C477.893 54.2348 478.724 54.3887 479.463 54.4134C480.214 54.438 480.86 54.2656 481.402 53.8963C481.956 53.527 482.405 52.8991 482.75 52.0128L483.211 50.8125L473.037 21.6364H481.309L487.181 42.4659H487.477L493.405 21.6364H501.733L490.708 53.0653C490.179 54.5919 489.459 55.9214 488.548 57.054C487.649 58.1989 486.511 59.0791 485.132 59.6946C483.753 60.3224 482.091 60.6364 480.146 60.6364ZM533.623 44.8295L533.42 46.8608C533.26 48.4858 532.952 50.1046 532.497 51.7173C532.053 53.3423 531.586 54.8134 531.093 56.1307C530.613 57.4479 530.225 58.482 529.93 59.233H524.833C525.018 58.5066 525.27 57.491 525.59 56.1861C525.91 54.8935 526.212 53.4408 526.495 51.8281C526.778 50.2154 526.957 48.572 527.031 46.8977L527.123 44.8295H533.623ZM16.7281 113H3.32184V75.1818H16.8389C20.6429 75.1818 23.9175 75.9389 26.6628 77.4531C29.408 78.955 31.5193 81.1155 32.9966 83.9347C34.4861 86.7538 35.2309 90.1269 35.2309 94.054C35.2309 97.9934 34.4861 101.379 32.9966 104.21C31.5193 107.042 29.3957 109.214 26.6258 110.729C23.8682 112.243 20.569 113 16.7281 113ZM11.3176 106.149H16.3957C18.7593 106.149 20.7475 105.731 22.3602 104.893C23.9852 104.044 25.2039 102.733 26.0164 100.96C26.8413 99.1752 27.2537 96.8731 27.2537 94.054C27.2537 91.2595 26.8413 88.9759 26.0164 87.2031C25.2039 85.4304 23.9914 84.1255 22.3787 83.2884C20.766 82.4512 18.7778 82.0327 16.4142 82.0327H11.3176V106.149ZM57.5723 113.554C54.6547 113.554 52.1433 112.963 50.0382 111.781C47.9454 110.587 46.3327 108.901 45.2001 106.722C44.0675 104.53 43.5013 101.939 43.5013 98.9474C43.5013 96.0298 44.0675 93.4692 45.2001 91.2656C46.3327 89.062 47.9269 87.3447 49.9828 86.1136C52.051 84.8826 54.4762 84.267 57.2584 84.267C59.1296 84.267 60.8715 84.5687 62.4842 85.1719C64.1092 85.7628 65.5249 86.6553 66.7314 87.8494C67.9501 89.0436 68.898 90.5455 69.5751 92.3551C70.2522 94.1525 70.5908 96.2576 70.5908 98.6705V100.831H46.6405V95.956H63.1859C63.1859 94.8234 62.9397 93.8201 62.4473 92.946C61.9549 92.072 61.2716 91.3887 60.3976 90.8963C59.5358 90.3916 58.5325 90.1392 57.3876 90.1392C56.1935 90.1392 55.1348 90.4162 54.2115 90.9702C53.3005 91.5118 52.5865 92.2443 52.0694 93.1676C51.5524 94.0786 51.2877 95.0942 51.2754 96.2145V100.849C51.2754 102.253 51.5339 103.465 52.051 104.487C52.5803 105.509 53.3251 106.297 54.2854 106.851C55.2456 107.405 56.3843 107.682 57.7015 107.682C58.5756 107.682 59.3758 107.559 60.1021 107.312C60.8284 107.066 61.4501 106.697 61.9672 106.205C62.4842 105.712 62.8782 105.109 63.149 104.395L70.4246 104.875C70.0552 106.623 69.2981 108.15 68.1533 109.455C67.0207 110.747 65.5557 111.757 63.7584 112.483C61.9733 113.197 59.9113 113.554 57.5723 113.554ZM102.964 92.7244L95.762 93.1676C95.6389 92.5521 95.3742 91.9981 94.968 91.5057C94.5617 91.0009 94.0262 90.6009 93.3614 90.3054C92.709 89.9976 91.9272 89.8438 91.0163 89.8438C89.7975 89.8438 88.7696 90.1023 87.9325 90.6193C87.0953 91.1241 86.6768 91.8011 86.6768 92.6506C86.6768 93.3277 86.9476 93.9001 87.4893 94.3679C88.0309 94.8357 88.9604 95.2112 90.2776 95.4943L95.4111 96.5284C98.1687 97.0947 100.225 98.0057 101.579 99.2614C102.933 100.517 103.61 102.167 103.61 104.21C103.61 106.069 103.062 107.7 101.967 109.104C100.883 110.507 99.3936 111.603 97.4978 112.391C95.6143 113.166 93.4415 113.554 90.9793 113.554C87.2246 113.554 84.2331 112.772 82.0049 111.209C79.789 109.633 78.4902 107.491 78.1086 104.783L85.8458 104.376C86.0797 105.521 86.646 106.395 87.5447 106.999C88.4433 107.589 89.5944 107.885 90.9978 107.885C92.3766 107.885 93.4845 107.62 94.3217 107.091C95.1711 106.549 95.602 105.854 95.6143 105.004C95.602 104.29 95.3004 103.705 94.7094 103.25C94.1185 102.782 93.2075 102.425 91.9765 102.179L87.0646 101.2C84.2947 100.646 82.2326 99.6861 80.8785 98.3196C79.5366 96.9531 78.8657 95.2112 78.8657 93.0938C78.8657 91.2718 79.3581 89.7022 80.343 88.3849C81.3401 87.0677 82.7374 86.0521 84.5347 85.3381C86.3444 84.6241 88.4618 84.267 90.887 84.267C94.4694 84.267 97.2885 85.0241 99.3444 86.5384C101.413 88.0526 102.619 90.1146 102.964 92.7244ZM112.203 113V84.6364H120.07V113H112.203ZM116.155 80.9801C114.986 80.9801 113.982 80.5923 113.145 79.8168C112.32 79.0289 111.908 78.0871 111.908 76.9915C111.908 75.9081 112.32 74.9787 113.145 74.2031C113.982 73.4152 114.986 73.0213 116.155 73.0213C117.325 73.0213 118.322 73.4152 119.147 74.2031C119.984 74.9787 120.402 75.9081 120.402 76.9915C120.402 78.0871 119.984 79.0289 119.147 79.8168C118.322 80.5923 117.325 80.9801 116.155 80.9801ZM142.79 124.227C140.242 124.227 138.056 123.876 136.234 123.175C134.425 122.485 132.984 121.544 131.913 120.349C130.842 119.155 130.147 117.813 129.827 116.324L137.102 115.345C137.324 115.911 137.675 116.441 138.155 116.933C138.635 117.426 139.269 117.82 140.057 118.115C140.857 118.423 141.83 118.577 142.975 118.577C144.686 118.577 146.095 118.158 147.203 117.321C148.323 116.496 148.884 115.111 148.884 113.166V107.977H148.551C148.207 108.765 147.689 109.51 147 110.212C146.311 110.913 145.424 111.486 144.341 111.929C143.258 112.372 141.965 112.594 140.463 112.594C138.333 112.594 136.395 112.101 134.646 111.116C132.911 110.119 131.526 108.599 130.492 106.555C129.47 104.5 128.959 101.902 128.959 98.7628C128.959 95.5497 129.482 92.866 130.529 90.7116C131.575 88.5573 132.966 86.9446 134.702 85.8736C136.45 84.8026 138.364 84.267 140.445 84.267C142.033 84.267 143.362 84.5379 144.433 85.0795C145.504 85.6089 146.366 86.2737 147.019 87.0739C147.683 87.8617 148.194 88.6373 148.551 89.4006H148.847V84.6364H156.658V113.277C156.658 115.69 156.067 117.709 154.885 119.334C153.703 120.959 152.066 122.178 149.973 122.99C147.893 123.815 145.498 124.227 142.79 124.227ZM142.956 106.685C144.224 106.685 145.295 106.371 146.169 105.743C147.055 105.103 147.733 104.192 148.2 103.01C148.68 101.816 148.921 100.388 148.921 98.7259C148.921 97.0639 148.687 95.6236 148.219 94.4048C147.751 93.1738 147.074 92.2197 146.188 91.5426C145.301 90.8655 144.224 90.527 142.956 90.527C141.663 90.527 140.574 90.8778 139.688 91.5795C138.801 92.2689 138.13 93.2292 137.675 94.4602C137.219 95.6913 136.992 97.1132 136.992 98.7259C136.992 100.363 137.219 101.779 137.675 102.973C138.143 104.155 138.814 105.072 139.688 105.724C140.574 106.365 141.663 106.685 142.956 106.685ZM174.424 96.6023V113H166.558V84.6364H174.055V89.6406H174.387C175.015 87.991 176.068 86.6861 177.545 85.7259C179.022 84.7533 180.813 84.267 182.919 84.267C184.888 84.267 186.606 84.6979 188.07 85.5597C189.535 86.4214 190.674 87.6525 191.487 89.2528C192.299 90.8409 192.705 92.7367 192.705 94.9403V113H184.839V96.3438C184.851 94.608 184.408 93.2538 183.509 92.2812C182.611 91.2964 181.374 90.804 179.798 90.804C178.739 90.804 177.803 91.0317 176.991 91.4872C176.191 91.9427 175.563 92.6075 175.107 93.4815C174.664 94.3433 174.436 95.3835 174.424 96.6023ZM215.471 113.554C212.554 113.554 210.043 112.963 207.937 111.781C205.845 110.587 204.232 108.901 203.099 106.722C201.967 104.53 201.4 101.939 201.4 98.9474C201.4 96.0298 201.967 93.4692 203.099 91.2656C204.232 89.062 205.826 87.3447 207.882 86.1136C209.95 84.8826 212.375 84.267 215.158 84.267C217.029 84.267 218.771 84.5687 220.383 85.1719C222.008 85.7628 223.424 86.6553 224.631 87.8494C225.849 89.0436 226.797 90.5455 227.474 92.3551C228.151 94.1525 228.49 96.2576 228.49 98.6705V100.831H204.54V95.956H221.085C221.085 94.8234 220.839 93.8201 220.346 92.946C219.854 92.072 219.171 91.3887 218.297 90.8963C217.435 90.3916 216.432 90.1392 215.287 90.1392C214.093 90.1392 213.034 90.4162 212.111 90.9702C211.2 91.5118 210.486 92.2443 209.969 93.1676C209.452 94.0786 209.187 95.0942 209.175 96.2145V100.849C209.175 102.253 209.433 103.465 209.95 104.487C210.48 105.509 211.224 106.297 212.185 106.851C213.145 107.405 214.284 107.682 215.601 107.682C216.475 107.682 217.275 107.559 218.001 107.312C218.728 107.066 219.349 106.697 219.866 106.205C220.383 105.712 220.777 105.109 221.048 104.395L228.324 104.875C227.954 106.623 227.197 108.15 226.052 109.455C224.92 110.747 223.455 111.757 221.658 112.483C219.873 113.197 217.811 113.554 215.471 113.554ZM237.263 113V84.6364H244.89V89.5852H245.185C245.702 87.8248 246.57 86.4953 247.789 85.5966C249.008 84.6856 250.411 84.2301 251.999 84.2301C252.393 84.2301 252.818 84.2547 253.273 84.304C253.729 84.3532 254.129 84.4209 254.474 84.5071V91.4872C254.104 91.3764 253.594 91.2779 252.941 91.1918C252.289 91.1056 251.692 91.0625 251.15 91.0625C249.993 91.0625 248.959 91.3149 248.048 91.8196C247.149 92.312 246.435 93.0014 245.906 93.8878C245.388 94.7741 245.13 95.7959 245.13 96.9531V113H237.263ZM278.004 113V75.1818H293.146C295.928 75.1818 298.249 75.5942 300.107 76.419C301.966 77.2438 303.364 78.3887 304.299 79.8537C305.235 81.3063 305.703 82.9806 305.703 84.8764C305.703 86.3537 305.407 87.6525 304.816 88.7727C304.225 89.8807 303.413 90.7917 302.379 91.5057C301.357 92.2074 300.187 92.706 298.87 93.0014V93.3707C300.311 93.4323 301.659 93.8385 302.914 94.5895C304.182 95.3404 305.21 96.393 305.998 97.7472C306.786 99.089 307.18 100.689 307.18 102.548C307.18 104.555 306.681 106.346 305.684 107.922C304.699 109.485 303.24 110.723 301.308 111.634C299.375 112.545 296.993 113 294.161 113H278.004ZM285.999 106.463H292.518C294.746 106.463 296.371 106.038 297.393 105.189C298.415 104.327 298.926 103.182 298.926 101.754C298.926 100.708 298.673 99.7846 298.169 98.9844C297.664 98.1842 296.944 97.5563 296.008 97.1009C295.085 96.6454 293.983 96.4176 292.703 96.4176H285.999V106.463ZM285.999 91.0071H291.927C293.023 91.0071 293.995 90.8163 294.845 90.4347C295.706 90.0407 296.383 89.4867 296.876 88.7727C297.381 88.0587 297.633 87.2031 297.633 86.206C297.633 84.8395 297.147 83.7377 296.174 82.9006C295.214 82.0634 293.847 81.6449 292.075 81.6449H285.999V91.0071ZM320.731 123.636C319.734 123.636 318.799 123.556 317.925 123.396C317.063 123.249 316.349 123.058 315.783 122.824L317.555 116.952C318.479 117.235 319.31 117.389 320.048 117.413C320.799 117.438 321.445 117.266 321.987 116.896C322.541 116.527 322.99 115.899 323.335 115.013L323.797 113.812L313.622 84.6364H321.895L327.767 105.466H328.062L333.99 84.6364H342.318L331.294 116.065C330.765 117.592 330.044 118.921 329.133 120.054C328.235 121.199 327.096 122.079 325.717 122.695C324.338 123.322 322.677 123.636 320.731 123.636ZM373.525 96.6023V113H365.659V84.6364H373.156V89.6406H373.488C374.116 87.991 375.169 86.6861 376.646 85.7259C378.123 84.7533 379.914 84.267 382.02 84.267C383.989 84.267 385.707 84.6979 387.172 85.5597C388.637 86.4214 389.775 87.6525 390.588 89.2528C391.4 90.8409 391.807 92.7367 391.807 94.9403V113H383.94V96.3438C383.952 94.608 383.509 93.2538 382.611 92.2812C381.712 91.2964 380.475 90.804 378.899 90.804C377.84 90.804 376.905 91.0317 376.092 91.4872C375.292 91.9427 374.664 92.6075 374.209 93.4815C373.765 94.3433 373.538 95.3835 373.525 96.6023ZM401.646 113V84.6364H409.513V113H401.646ZM405.598 80.9801C404.429 80.9801 403.425 80.5923 402.588 79.8168C401.763 79.0289 401.351 78.0871 401.351 76.9915C401.351 75.9081 401.763 74.9787 402.588 74.2031C403.425 73.4152 404.429 73.0213 405.598 73.0213C406.768 73.0213 407.765 73.4152 408.59 74.2031C409.427 74.9787 409.845 75.9081 409.845 76.9915C409.845 78.0871 409.427 79.0289 408.59 79.8168C407.765 80.5923 406.768 80.9801 405.598 80.9801ZM432.233 124.227C429.685 124.227 427.499 123.876 425.677 123.175C423.868 122.485 422.427 121.544 421.356 120.349C420.285 119.155 419.59 117.813 419.27 116.324L426.545 115.345C426.767 115.911 427.118 116.441 427.598 116.933C428.078 117.426 428.712 117.82 429.5 118.115C430.3 118.423 431.273 118.577 432.417 118.577C434.129 118.577 435.538 118.158 436.646 117.321C437.766 116.496 438.327 115.111 438.327 113.166V107.977H437.994C437.649 108.765 437.132 109.51 436.443 110.212C435.754 110.913 434.867 111.486 433.784 111.929C432.701 112.372 431.408 112.594 429.906 112.594C427.776 112.594 425.837 112.101 424.089 111.116C422.354 110.119 420.969 108.599 419.935 106.555C418.913 104.5 418.402 101.902 418.402 98.7628C418.402 95.5497 418.925 92.866 419.971 90.7116C421.018 88.5573 422.409 86.9446 424.145 85.8736C425.893 84.8026 427.807 84.267 429.888 84.267C431.476 84.267 432.805 84.5379 433.876 85.0795C434.947 85.6089 435.809 86.2737 436.462 87.0739C437.126 87.8617 437.637 88.6373 437.994 89.4006H438.29V84.6364H446.101V113.277C446.101 115.69 445.51 117.709 444.328 119.334C443.146 120.959 441.509 122.178 439.416 122.99C437.336 123.815 434.941 124.227 432.233 124.227ZM432.399 106.685C433.667 106.685 434.738 106.371 435.612 105.743C436.498 105.103 437.176 104.192 437.643 103.01C438.123 101.816 438.364 100.388 438.364 98.7259C438.364 97.0639 438.13 95.6236 437.662 94.4048C437.194 93.1738 436.517 92.2197 435.631 91.5426C434.744 90.8655 433.667 90.527 432.399 90.527C431.106 90.527 430.017 90.8778 429.131 91.5795C428.244 92.2689 427.573 93.2292 427.118 94.4602C426.662 95.6913 426.435 97.1132 426.435 98.7259C426.435 100.363 426.662 101.779 427.118 102.973C427.586 104.155 428.257 105.072 429.131 105.724C430.017 106.365 431.106 106.685 432.399 106.685ZM463.867 96.6023V113H456.001V75.1818H463.646V89.6406H463.978C464.618 87.9664 465.652 86.6553 467.08 85.7074C468.508 84.7472 470.299 84.267 472.454 84.267C474.424 84.267 476.141 84.6979 477.606 85.5597C479.083 86.4091 480.228 87.634 481.04 89.2344C481.865 90.8224 482.272 92.7244 482.259 94.9403V113H474.393V96.3438C474.405 94.5956 473.962 93.2353 473.063 92.2628C472.177 91.2902 470.933 90.804 469.333 90.804C468.262 90.804 467.314 91.0317 466.489 91.4872C465.677 91.9427 465.037 92.6075 464.569 93.4815C464.113 94.3433 463.879 95.3835 463.867 96.6023ZM507.177 84.6364V90.5455H490.096V84.6364H507.177ZM493.973 77.8409H501.84V104.284C501.84 105.01 501.951 105.577 502.172 105.983C502.394 106.377 502.702 106.654 503.096 106.814C503.502 106.974 503.97 107.054 504.499 107.054C504.868 107.054 505.238 107.023 505.607 106.962C505.976 106.888 506.259 106.832 506.456 106.795L507.694 112.649C507.3 112.772 506.746 112.914 506.032 113.074C505.318 113.246 504.45 113.351 503.428 113.388C501.532 113.462 499.87 113.209 498.442 112.631C497.026 112.052 495.925 111.153 495.137 109.935C494.349 108.716 493.961 107.177 493.973 105.318V77.8409ZM536.214 113.48C534.995 113.48 533.949 113.049 533.075 112.188C532.213 111.313 531.782 110.267 531.782 109.048C531.782 107.842 532.213 106.808 533.075 105.946C533.949 105.084 534.995 104.653 536.214 104.653C537.396 104.653 538.43 105.084 539.316 105.946C540.203 106.808 540.646 107.842 540.646 109.048C540.646 109.861 540.437 110.606 540.018 111.283C539.612 111.947 539.076 112.483 538.411 112.889C537.747 113.283 537.014 113.48 536.214 113.48Z" fill="#080808"/>
</mask>
<g mask="url(#mask0_22_66)">
<g filter="url(#filter0_f_22_66)">
<rect x="63.9691" y="-94.2802" width="332.526" height="185.45" transform="rotate(30 63.9691 -94.2802)" fill="#8B8B8B"/>
</g>
<g filter="url(#filter1_f_22_66)">
<rect x="330.251" y="-53.199" width="297.576" height="112.027" transform="rotate(30 330.251 -53.199)" fill="#8B8B8B"/>
</g>
</g>
<defs>
<filter id="filter0_f_22_66" x="-57.5557" y="-123.08" width="438.301" height="384.467" filterUnits="userSpaceOnUse" color-interpolation-filters="sRGB">
<feFlood flood-opacity="0" result="BackgroundImageFix"/>
<feBlend mode="normal" in="SourceGraphic" in2="BackgroundImageFix" result="shape"/>
<feGaussianBlur stdDeviation="14.4" result="effect1_foregroundBlur_22_66"/>
</filter>
<filter id="filter1_f_22_66" x="245.438" y="-81.999" width="371.322" height="303.406" filterUnits="userSpaceOnUse" color-interpolation-filters="sRGB">
<feFlood flood-opacity="0" result="BackgroundImageFix"/>
<feBlend mode="normal" in="SourceGraphic" in2="BackgroundImageFix" result="shape"/>
<feGaussianBlur stdDeviation="14.4" result="effect1_foregroundBlur_22_66"/>
</filter>
</defs>
</svg>
