<svg width="364" height="154" viewBox="0 0 364 154" fill="none" xmlns="http://www.w3.org/2000/svg">
<rect x="0.447357" y="0.447357" width="363.105" height="153.105" rx="6.71035" fill="url(#paint0_linear_144_29)"/>
<rect x="0.447357" y="0.447357" width="363.105" height="153.105" rx="6.71035" stroke="url(#paint1_linear_144_29)" stroke-width="0.894713"/>
<path d="M206.75 64.375L208.938 60.5859H204.562L206.75 64.375ZM158.25 100.75L156.331 104.682L160.695 104.378L158.25 100.75ZM206.371 52.25V60.9648H207.129V52.25H206.371ZM206.371 94.6875V100.75H207.129V94.6875H206.371ZM206.371 79.5312V94.6875H207.129V79.5312H206.371ZM158.629 76.5V52.25H157.871V76.5H158.629ZM158.629 88.625V76.5H157.871V88.625H158.629ZM182.5 124.621C170.453 124.621 160.49 115.697 158.862 104.098L158.111 104.203C159.791 116.171 170.07 125.379 182.5 125.379V124.621ZM182.5 125.379C196.102 125.379 207.129 114.352 207.129 100.75H206.371C206.371 113.934 195.684 124.621 182.5 124.621V125.379ZM182.5 28.3789C195.684 28.3789 206.371 39.0664 206.371 52.25H207.129C207.129 38.6478 196.102 27.6211 182.5 27.6211V28.3789ZM182.5 27.6211C168.898 27.6211 157.871 38.6478 157.871 52.25H158.629C158.629 39.0664 169.316 28.3789 182.5 28.3789V27.6211Z" fill="url(#paint2_linear_144_29)"/>
<path d="M170.375 52.25L166.586 50.0624V54.4376L170.375 52.25ZM206.75 100.75L210.682 102.669L210.378 98.3047L206.75 100.75ZM158.25 52.6289H166.965V51.8711H158.25V52.6289ZM200.688 52.6289H206.75V51.8711H200.688V52.6289ZM185.531 52.6289L200.688 52.6289V51.8711L185.531 51.8711V52.6289ZM182.5 100.371H158.25V101.129H182.5V100.371ZM194.625 100.371H182.5V101.129H194.625V100.371ZM230.621 76.5C230.621 88.5471 221.697 98.5105 210.098 100.138L210.203 100.889C222.171 99.2091 231.379 88.9302 231.379 76.5H230.621ZM231.379 76.5C231.379 62.8978 220.352 51.8711 206.75 51.8711V52.6289C219.934 52.6289 230.621 63.3164 230.621 76.5H231.379ZM134.379 76.5C134.379 63.3164 145.066 52.6289 158.25 52.6289V51.8711C144.648 51.8711 133.621 62.8978 133.621 76.5H134.379ZM133.621 76.5C133.621 90.1022 144.648 101.129 158.25 101.129V100.371C145.066 100.371 134.379 89.6836 134.379 76.5H133.621Z" fill="url(#paint3_linear_144_29)"/>
<path d="M182.5 58.3125L186.583 70.8798H199.797L189.107 78.6467L193.19 91.214L182.5 83.447L171.81 91.214L175.893 78.6467L165.203 70.8798H178.417L182.5 58.3125Z" fill="url(#paint4_radial_144_29)"/>
<defs>
<linearGradient id="paint0_linear_144_29" x1="-3.55601e-06" y1="1.12646" x2="86.4931" y2="250.32" gradientUnits="userSpaceOnUse">
<stop stop-color="#616169"/>
<stop offset="1" stop-color="#616169" stop-opacity="0"/>
</linearGradient>
<linearGradient id="paint1_linear_144_29" x1="314.963" y1="138.944" x2="164.589" y2="-93.1104" gradientUnits="userSpaceOnUse">
<stop stop-color="#95959C" stop-opacity="0.8"/>
<stop offset="1" stop-color="#95959C" stop-opacity="0"/>
</linearGradient>
<linearGradient id="paint2_linear_144_29" x1="164.313" y1="28" x2="222.513" y2="132.275" gradientUnits="userSpaceOnUse">
<stop stop-color="white"/>
<stop offset="1" stop-color="white" stop-opacity="0"/>
</linearGradient>
<linearGradient id="paint3_linear_144_29" x1="134" y1="94.6875" x2="238.275" y2="36.4875" gradientUnits="userSpaceOnUse">
<stop stop-color="white"/>
<stop offset="1" stop-color="white" stop-opacity="0"/>
</linearGradient>
<radialGradient id="paint4_radial_144_29" cx="0" cy="0" r="1" gradientUnits="userSpaceOnUse" gradientTransform="translate(182.5 76.5) rotate(90) scale(29.3021 29.3021)">
<stop stop-color="white"/>
<stop offset="1" stop-color="white" stop-opacity="0"/>
</radialGradient>
</defs>
</svg>
