<svg width="90" height="24" viewBox="0 0 90 24" fill="none" xmlns="http://www.w3.org/2000/svg">
<path d="M9.17436 8.63778C9.11754 8.06487 8.8737 7.61979 8.44283 7.30256C8.01196 6.98532 7.4272 6.8267 6.68857 6.8267C6.18667 6.8267 5.7629 6.89773 5.41726 7.03977C5.07161 7.17708 4.80646 7.36884 4.6218 7.61506C4.44188 7.86127 4.35192 8.14062 4.35192 8.45312C4.34245 8.71354 4.3969 8.94081 4.51527 9.13494C4.63838 9.32907 4.80646 9.49716 5.01953 9.6392C5.2326 9.77651 5.47881 9.89725 5.75817 10.0014C6.03752 10.1009 6.33582 10.1861 6.65305 10.2571L7.95987 10.5696C8.59434 10.7116 9.17673 10.901 9.70703 11.1378C10.2373 11.3745 10.6966 11.6657 11.0849 12.0114C11.4731 12.357 11.7738 12.7642 11.9869 13.233C12.2047 13.7017 12.3159 14.2391 12.3207 14.8452C12.3159 15.7353 12.0887 16.5071 11.6388 17.1605C11.1938 17.8092 10.5498 18.3134 9.70703 18.6733C8.86896 19.0284 7.85807 19.206 6.67436 19.206C5.50012 19.206 4.47739 19.026 3.60618 18.6662C2.7397 18.3063 2.06262 17.7737 1.57493 17.0682C1.09197 16.358 0.83866 15.4796 0.814986 14.4332H3.79084C3.82398 14.9209 3.96366 15.3281 4.20987 15.6548C4.46082 15.9768 4.79463 16.2206 5.21129 16.3864C5.63269 16.5473 6.10855 16.6278 6.63885 16.6278C7.15968 16.6278 7.61186 16.5521 7.99538 16.4006C8.38364 16.2491 8.6843 16.0384 8.89737 15.7685C9.11044 15.4986 9.21697 15.1884 9.21697 14.8381C9.21697 14.5114 9.11991 14.2367 8.92578 14.0142C8.73639 13.7917 8.45703 13.6023 8.08771 13.446C7.72313 13.2898 7.27569 13.1477 6.74538 13.0199L5.16158 12.6222C3.93525 12.3239 2.96697 11.8575 2.25675 11.223C1.54652 10.5885 1.19377 9.7339 1.19851 8.65909C1.19377 7.77841 1.42815 7.009 1.90163 6.35085C2.37985 5.69271 3.03563 5.17898 3.86896 4.80966C4.7023 4.44034 5.64927 4.25568 6.70987 4.25568C7.78942 4.25568 8.73165 4.44034 9.53658 4.80966C10.3462 5.17898 10.976 5.69271 11.4258 6.35085C11.8756 7.009 12.1076 7.77131 12.1218 8.63778H9.17436ZM17.4432 19.206C16.7472 19.206 16.1269 19.0852 15.5824 18.8438C15.0379 18.5975 14.607 18.2353 14.2898 17.7571C13.9773 17.2741 13.821 16.6728 13.821 15.9531C13.821 15.3471 13.9323 14.8381 14.1548 14.4261C14.3774 14.0142 14.6804 13.6828 15.0639 13.4318C15.4474 13.1809 15.883 12.9915 16.3707 12.8636C16.8632 12.7358 17.3793 12.6458 17.919 12.5938C18.5535 12.5275 19.0649 12.4659 19.4531 12.4091C19.8414 12.3475 20.1231 12.2576 20.2983 12.1392C20.4735 12.0208 20.5611 11.8456 20.5611 11.6136V11.571C20.5611 11.1212 20.419 10.7732 20.1349 10.527C19.8556 10.2808 19.4579 10.1577 18.9418 10.1577C18.3973 10.1577 17.964 10.2784 17.642 10.5199C17.3201 10.7566 17.107 11.0549 17.0028 11.4148L14.2045 11.1875C14.3466 10.5246 14.6259 9.9517 15.0426 9.46875C15.4593 8.98106 15.9967 8.60701 16.6548 8.34659C17.3177 8.08144 18.0848 7.94886 18.956 7.94886C19.562 7.94886 20.142 8.01989 20.696 8.16193C21.2547 8.30398 21.7495 8.52415 22.1804 8.82244C22.616 9.12074 22.9593 9.50426 23.2102 9.97301C23.4612 10.437 23.5866 10.9934 23.5866 11.642V19H20.7173V17.4872H20.6321C20.4569 17.8281 20.2225 18.1288 19.929 18.3892C19.6354 18.6449 19.2827 18.8461 18.8707 18.9929C18.4588 19.1349 17.983 19.206 17.4432 19.206ZM18.3097 17.1179C18.7547 17.1179 19.1477 17.0303 19.4886 16.8551C19.8295 16.6752 20.0971 16.4337 20.2912 16.1307C20.4853 15.8277 20.5824 15.4844 20.5824 15.1009V13.9432C20.4877 14.0047 20.3575 14.0616 20.1918 14.1136C20.0308 14.161 19.8485 14.206 19.6449 14.2486C19.4413 14.2865 19.2377 14.322 19.0341 14.3551C18.8305 14.3835 18.6458 14.4096 18.4801 14.4332C18.125 14.4853 17.8149 14.5682 17.5497 14.6818C17.2846 14.7955 17.0786 14.9493 16.9318 15.1435C16.785 15.3329 16.7116 15.5696 16.7116 15.8537C16.7116 16.2656 16.8608 16.5805 17.1591 16.7983C17.4621 17.0114 17.8456 17.1179 18.3097 17.1179ZM28.6754 15.8608L28.6825 12.2315H29.1229L32.6172 8.09091H36.0902L31.3956 13.5739H30.6783L28.6754 15.8608ZM25.9339 19V4.45455H28.9595V19H25.9339ZM32.7521 19L29.5419 14.2486L31.5589 12.1108L36.2962 19H32.7521ZM42.0543 19.2131C40.9369 19.2131 39.9757 18.9763 39.1708 18.5028C38.3706 18.0246 37.7551 17.3617 37.3242 16.5142C36.8981 15.6667 36.685 14.6913 36.685 13.5881C36.685 12.4706 36.9004 11.4905 37.3313 10.6477C37.7669 9.80019 38.3848 9.13968 39.185 8.66619C39.9852 8.18797 40.9369 7.94886 42.0401 7.94886C42.9918 7.94886 43.8252 8.12169 44.5401 8.46733C45.2551 8.81297 45.8209 9.2983 46.2376 9.9233C46.6542 10.5483 46.8839 11.2822 46.9265 12.125H44.0714C43.9909 11.5805 43.7778 11.1425 43.4322 10.8111C43.0913 10.4749 42.6438 10.3068 42.0898 10.3068C41.6211 10.3068 41.2115 10.4347 40.8612 10.6903C40.5155 10.9413 40.2456 11.3082 40.0515 11.7912C39.8574 12.2741 39.7603 12.8589 39.7603 13.5455C39.7603 14.2415 39.855 14.8333 40.0444 15.321C40.2385 15.8087 40.5108 16.1804 40.8612 16.4361C41.2115 16.6918 41.6211 16.8196 42.0898 16.8196C42.4355 16.8196 42.7456 16.7486 43.0202 16.6065C43.2996 16.4645 43.5292 16.2585 43.7092 15.9886C43.8938 15.714 44.0146 15.3849 44.0714 15.0014H46.9265C46.8791 15.8348 46.6519 16.5687 46.2447 17.2031C45.8422 17.8329 45.2859 18.3253 44.5756 18.6804C43.8654 19.0355 43.025 19.2131 42.0543 19.2131ZM51.8892 12.6932V19H48.8636V4.45455H51.804V10.0156H51.9318C52.178 9.37169 52.5758 8.86742 53.125 8.50284C53.6742 8.13352 54.3632 7.94886 55.1918 7.94886C55.9493 7.94886 56.6098 8.11458 57.1733 8.44602C57.7415 8.77273 58.1818 9.24384 58.4943 9.85938C58.8116 10.4702 58.9678 11.2017 58.9631 12.054V19H55.9375V12.5938C55.9422 11.9214 55.7718 11.3982 55.4261 11.0241C55.0852 10.6501 54.607 10.4631 53.9915 10.4631C53.5795 10.4631 53.215 10.5507 52.8977 10.7259C52.5852 10.901 52.339 11.1567 52.1591 11.4929C51.9839 11.8243 51.8939 12.2244 51.8892 12.6932ZM64.4549 19.206C63.7589 19.206 63.1386 19.0852 62.5941 18.8438C62.0496 18.5975 61.6187 18.2353 61.3015 17.7571C60.989 17.2741 60.8327 16.6728 60.8327 15.9531C60.8327 15.3471 60.944 14.8381 61.1665 14.4261C61.3891 14.0142 61.6921 13.6828 62.0756 13.4318C62.4592 13.1809 62.8948 12.9915 63.3825 12.8636C63.8749 12.7358 64.391 12.6458 64.9308 12.5938C65.5652 12.5275 66.0766 12.4659 66.4648 12.4091C66.8531 12.3475 67.1348 12.2576 67.31 12.1392C67.4852 12.0208 67.5728 11.8456 67.5728 11.6136V11.571C67.5728 11.1212 67.4308 10.7732 67.1467 10.527C66.8673 10.2808 66.4696 10.1577 65.9535 10.1577C65.409 10.1577 64.9757 10.2784 64.6538 10.5199C64.3318 10.7566 64.1187 11.0549 64.0146 11.4148L61.2163 11.1875C61.3583 10.5246 61.6377 9.9517 62.0543 9.46875C62.471 8.98106 63.0084 8.60701 63.6665 8.34659C64.3294 8.08144 65.0965 7.94886 65.9677 7.94886C66.5737 7.94886 67.1538 8.01989 67.7077 8.16193C68.2665 8.30398 68.7612 8.52415 69.1921 8.82244C69.6277 9.12074 69.971 9.50426 70.2219 9.97301C70.4729 10.437 70.5984 10.9934 70.5984 11.642V19H67.729V17.4872H67.6438C67.4686 17.8281 67.2343 18.1288 66.9407 18.3892C66.6471 18.6449 66.2944 18.8461 65.8825 18.9929C65.4705 19.1349 64.9947 19.206 64.4549 19.206ZM65.3214 17.1179C65.7665 17.1179 66.1594 17.0303 66.5004 16.8551C66.8413 16.6752 67.1088 16.4337 67.3029 16.1307C67.497 15.8277 67.5941 15.4844 67.5941 15.1009V13.9432C67.4994 14.0047 67.3692 14.0616 67.2035 14.1136C67.0425 14.161 66.8602 14.206 66.6566 14.2486C66.453 14.2865 66.2494 14.322 66.0458 14.3551C65.8422 14.3835 65.6576 14.4096 65.4918 14.4332C65.1367 14.4853 64.8266 14.5682 64.5614 14.6818C64.2963 14.7955 64.0903 14.9493 63.9435 15.1435C63.7968 15.3329 63.7234 15.5696 63.7234 15.8537C63.7234 16.2656 63.8725 16.5805 64.1708 16.7983C64.4738 17.0114 64.8574 17.1179 65.3214 17.1179ZM72.9457 19V8.09091H75.8292V10.0156H75.957C76.1843 9.37642 76.5631 8.87216 77.0934 8.50284C77.6237 8.13352 78.2582 7.94886 78.9968 7.94886C79.7449 7.94886 80.3817 8.13589 80.9073 8.50994C81.4329 8.87926 81.7833 9.38116 81.9585 10.0156H82.0721C82.2946 9.39062 82.6971 8.8911 83.2795 8.51705C83.8666 8.13826 84.5603 7.94886 85.3604 7.94886C86.3784 7.94886 87.2047 8.2732 87.8391 8.92188C88.4783 9.56581 88.7979 10.4796 88.7979 11.6634V19H85.7795V12.2599C85.7795 11.6539 85.6185 11.1993 85.2965 10.8963C84.9746 10.5933 84.5721 10.4418 84.0891 10.4418C83.5399 10.4418 83.1114 10.617 82.8036 10.9673C82.4959 11.313 82.342 11.7699 82.342 12.3381V19H79.4087V12.196C79.4087 11.661 79.2549 11.2348 78.9471 10.9176C78.6441 10.6004 78.244 10.4418 77.7468 10.4418C77.4106 10.4418 77.1076 10.527 76.8377 10.6974C76.5726 10.8632 76.3619 11.0975 76.2056 11.4006C76.0494 11.6989 75.9712 12.0492 75.9712 12.4517V19H72.9457Z" fill="url(#paint0_radial_6_2)"/>
<mask id="mask0_6_2" style="mask-type:alpha" maskUnits="userSpaceOnUse" x="0" y="4" width="89" height="16">
<path d="M9.17436 8.63778C9.11754 8.06487 8.8737 7.61979 8.44283 7.30256C8.01196 6.98532 7.4272 6.8267 6.68857 6.8267C6.18667 6.8267 5.7629 6.89773 5.41726 7.03977C5.07161 7.17708 4.80646 7.36884 4.6218 7.61506C4.44188 7.86127 4.35192 8.14062 4.35192 8.45312C4.34245 8.71354 4.3969 8.94081 4.51527 9.13494C4.63838 9.32907 4.80646 9.49716 5.01953 9.6392C5.2326 9.77651 5.47881 9.89725 5.75817 10.0014C6.03752 10.1009 6.33582 10.1861 6.65305 10.2571L7.95987 10.5696C8.59434 10.7116 9.17673 10.901 9.70703 11.1378C10.2373 11.3745 10.6966 11.6657 11.0849 12.0114C11.4731 12.357 11.7738 12.7642 11.9869 13.233C12.2047 13.7017 12.3159 14.2391 12.3207 14.8452C12.3159 15.7353 12.0887 16.5071 11.6388 17.1605C11.1938 17.8092 10.5498 18.3134 9.70703 18.6733C8.86896 19.0284 7.85807 19.206 6.67436 19.206C5.50012 19.206 4.47739 19.026 3.60618 18.6662C2.7397 18.3063 2.06262 17.7737 1.57493 17.0682C1.09197 16.358 0.83866 15.4796 0.814986 14.4332H3.79084C3.82398 14.9209 3.96366 15.3281 4.20987 15.6548C4.46082 15.9768 4.79463 16.2206 5.21129 16.3864C5.63269 16.5473 6.10855 16.6278 6.63885 16.6278C7.15968 16.6278 7.61186 16.5521 7.99538 16.4006C8.38364 16.2491 8.6843 16.0384 8.89737 15.7685C9.11044 15.4986 9.21697 15.1884 9.21697 14.8381C9.21697 14.5114 9.11991 14.2367 8.92578 14.0142C8.73639 13.7917 8.45703 13.6023 8.08771 13.446C7.72313 13.2898 7.27569 13.1477 6.74538 13.0199L5.16158 12.6222C3.93525 12.3239 2.96697 11.8575 2.25675 11.223C1.54652 10.5885 1.19377 9.7339 1.19851 8.65909C1.19377 7.77841 1.42815 7.009 1.90163 6.35085C2.37985 5.69271 3.03563 5.17898 3.86896 4.80966C4.7023 4.44034 5.64927 4.25568 6.70987 4.25568C7.78942 4.25568 8.73165 4.44034 9.53658 4.80966C10.3462 5.17898 10.976 5.69271 11.4258 6.35085C11.8756 7.009 12.1076 7.77131 12.1218 8.63778H9.17436ZM17.4432 19.206C16.7472 19.206 16.1269 19.0852 15.5824 18.8438C15.0379 18.5975 14.607 18.2353 14.2898 17.7571C13.9773 17.2741 13.821 16.6728 13.821 15.9531C13.821 15.3471 13.9323 14.8381 14.1548 14.4261C14.3774 14.0142 14.6804 13.6828 15.0639 13.4318C15.4474 13.1809 15.883 12.9915 16.3707 12.8636C16.8632 12.7358 17.3793 12.6458 17.919 12.5938C18.5535 12.5275 19.0649 12.4659 19.4531 12.4091C19.8414 12.3475 20.1231 12.2576 20.2983 12.1392C20.4735 12.0208 20.5611 11.8456 20.5611 11.6136V11.571C20.5611 11.1212 20.419 10.7732 20.1349 10.527C19.8556 10.2808 19.4579 10.1577 18.9418 10.1577C18.3973 10.1577 17.964 10.2784 17.642 10.5199C17.3201 10.7566 17.107 11.0549 17.0028 11.4148L14.2045 11.1875C14.3466 10.5246 14.6259 9.9517 15.0426 9.46875C15.4593 8.98106 15.9967 8.60701 16.6548 8.34659C17.3177 8.08144 18.0848 7.94886 18.956 7.94886C19.562 7.94886 20.142 8.01989 20.696 8.16193C21.2547 8.30398 21.7495 8.52415 22.1804 8.82244C22.616 9.12074 22.9593 9.50426 23.2102 9.97301C23.4612 10.437 23.5866 10.9934 23.5866 11.642V19H20.7173V17.4872H20.6321C20.4569 17.8281 20.2225 18.1288 19.929 18.3892C19.6354 18.6449 19.2827 18.8461 18.8707 18.9929C18.4588 19.1349 17.983 19.206 17.4432 19.206ZM18.3097 17.1179C18.7547 17.1179 19.1477 17.0303 19.4886 16.8551C19.8295 16.6752 20.0971 16.4337 20.2912 16.1307C20.4853 15.8277 20.5824 15.4844 20.5824 15.1009V13.9432C20.4877 14.0047 20.3575 14.0616 20.1918 14.1136C20.0308 14.161 19.8485 14.206 19.6449 14.2486C19.4413 14.2865 19.2377 14.322 19.0341 14.3551C18.8305 14.3835 18.6458 14.4096 18.4801 14.4332C18.125 14.4853 17.8149 14.5682 17.5497 14.6818C17.2846 14.7955 17.0786 14.9493 16.9318 15.1435C16.785 15.3329 16.7116 15.5696 16.7116 15.8537C16.7116 16.2656 16.8608 16.5805 17.1591 16.7983C17.4621 17.0114 17.8456 17.1179 18.3097 17.1179ZM28.6754 15.8608L28.6825 12.2315H29.1229L32.6172 8.09091H36.0902L31.3956 13.5739H30.6783L28.6754 15.8608ZM25.9339 19V4.45455H28.9595V19H25.9339ZM32.7521 19L29.5419 14.2486L31.5589 12.1108L36.2962 19H32.7521ZM42.0543 19.2131C40.9369 19.2131 39.9757 18.9763 39.1708 18.5028C38.3706 18.0246 37.7551 17.3617 37.3242 16.5142C36.8981 15.6667 36.685 14.6913 36.685 13.5881C36.685 12.4706 36.9004 11.4905 37.3313 10.6477C37.7669 9.80019 38.3848 9.13968 39.185 8.66619C39.9852 8.18797 40.9369 7.94886 42.0401 7.94886C42.9918 7.94886 43.8252 8.12169 44.5401 8.46733C45.2551 8.81297 45.8209 9.2983 46.2376 9.9233C46.6542 10.5483 46.8839 11.2822 46.9265 12.125H44.0714C43.9909 11.5805 43.7778 11.1425 43.4322 10.8111C43.0913 10.4749 42.6438 10.3068 42.0898 10.3068C41.6211 10.3068 41.2115 10.4347 40.8612 10.6903C40.5155 10.9413 40.2456 11.3082 40.0515 11.7912C39.8574 12.2741 39.7603 12.8589 39.7603 13.5455C39.7603 14.2415 39.855 14.8333 40.0444 15.321C40.2385 15.8087 40.5108 16.1804 40.8612 16.4361C41.2115 16.6918 41.6211 16.8196 42.0898 16.8196C42.4355 16.8196 42.7456 16.7486 43.0202 16.6065C43.2996 16.4645 43.5292 16.2585 43.7092 15.9886C43.8938 15.714 44.0146 15.3849 44.0714 15.0014H46.9265C46.8791 15.8348 46.6519 16.5687 46.2447 17.2031C45.8422 17.8329 45.2859 18.3253 44.5756 18.6804C43.8654 19.0355 43.025 19.2131 42.0543 19.2131ZM51.8892 12.6932V19H48.8636V4.45455H51.804V10.0156H51.9318C52.178 9.37169 52.5758 8.86742 53.125 8.50284C53.6742 8.13352 54.3632 7.94886 55.1918 7.94886C55.9493 7.94886 56.6098 8.11458 57.1733 8.44602C57.7415 8.77273 58.1818 9.24384 58.4943 9.85938C58.8116 10.4702 58.9678 11.2017 58.9631 12.054V19H55.9375V12.5938C55.9422 11.9214 55.7718 11.3982 55.4261 11.0241C55.0852 10.6501 54.607 10.4631 53.9915 10.4631C53.5795 10.4631 53.215 10.5507 52.8977 10.7259C52.5852 10.901 52.339 11.1567 52.1591 11.4929C51.9839 11.8243 51.8939 12.2244 51.8892 12.6932ZM64.4549 19.206C63.7589 19.206 63.1386 19.0852 62.5941 18.8438C62.0496 18.5975 61.6187 18.2353 61.3015 17.7571C60.989 17.2741 60.8327 16.6728 60.8327 15.9531C60.8327 15.3471 60.944 14.8381 61.1665 14.4261C61.3891 14.0142 61.6921 13.6828 62.0756 13.4318C62.4592 13.1809 62.8948 12.9915 63.3825 12.8636C63.8749 12.7358 64.391 12.6458 64.9308 12.5938C65.5652 12.5275 66.0766 12.4659 66.4648 12.4091C66.8531 12.3475 67.1348 12.2576 67.31 12.1392C67.4852 12.0208 67.5728 11.8456 67.5728 11.6136V11.571C67.5728 11.1212 67.4308 10.7732 67.1467 10.527C66.8673 10.2808 66.4696 10.1577 65.9535 10.1577C65.409 10.1577 64.9757 10.2784 64.6538 10.5199C64.3318 10.7566 64.1187 11.0549 64.0146 11.4148L61.2163 11.1875C61.3583 10.5246 61.6377 9.9517 62.0543 9.46875C62.471 8.98106 63.0084 8.60701 63.6665 8.34659C64.3294 8.08144 65.0965 7.94886 65.9677 7.94886C66.5737 7.94886 67.1538 8.01989 67.7077 8.16193C68.2665 8.30398 68.7612 8.52415 69.1921 8.82244C69.6277 9.12074 69.971 9.50426 70.2219 9.97301C70.4729 10.437 70.5984 10.9934 70.5984 11.642V19H67.729V17.4872H67.6438C67.4686 17.8281 67.2343 18.1288 66.9407 18.3892C66.6471 18.6449 66.2944 18.8461 65.8825 18.9929C65.4705 19.1349 64.9947 19.206 64.4549 19.206ZM65.3214 17.1179C65.7665 17.1179 66.1594 17.0303 66.5004 16.8551C66.8413 16.6752 67.1088 16.4337 67.3029 16.1307C67.497 15.8277 67.5941 15.4844 67.5941 15.1009V13.9432C67.4994 14.0047 67.3692 14.0616 67.2035 14.1136C67.0425 14.161 66.8602 14.206 66.6566 14.2486C66.453 14.2865 66.2494 14.322 66.0458 14.3551C65.8422 14.3835 65.6576 14.4096 65.4918 14.4332C65.1367 14.4853 64.8266 14.5682 64.5614 14.6818C64.2963 14.7955 64.0903 14.9493 63.9435 15.1435C63.7968 15.3329 63.7234 15.5696 63.7234 15.8537C63.7234 16.2656 63.8725 16.5805 64.1708 16.7983C64.4738 17.0114 64.8574 17.1179 65.3214 17.1179ZM72.9457 19V8.09091H75.8292V10.0156H75.957C76.1843 9.37642 76.5631 8.87216 77.0934 8.50284C77.6237 8.13352 78.2582 7.94886 78.9968 7.94886C79.7449 7.94886 80.3817 8.13589 80.9073 8.50994C81.4329 8.87926 81.7833 9.38116 81.9585 10.0156H82.0721C82.2946 9.39062 82.6971 8.8911 83.2795 8.51705C83.8666 8.13826 84.5603 7.94886 85.3604 7.94886C86.3784 7.94886 87.2047 8.2732 87.8391 8.92188C88.4783 9.56581 88.7979 10.4796 88.7979 11.6634V19H85.7795V12.2599C85.7795 11.6539 85.6185 11.1993 85.2965 10.8963C84.9746 10.5933 84.5721 10.4418 84.0891 10.4418C83.5399 10.4418 83.1114 10.617 82.8036 10.9673C82.4959 11.313 82.342 11.7699 82.342 12.3381V19H79.4087V12.196C79.4087 11.661 79.2549 11.2348 78.9471 10.9176C78.6441 10.6004 78.244 10.4418 77.7468 10.4418C77.4106 10.4418 77.1076 10.527 76.8377 10.6974C76.5726 10.8632 76.3619 11.0975 76.2056 11.4006C76.0494 11.6989 75.9712 12.0492 75.9712 12.4517V19H72.9457Z" fill="url(#paint1_radial_6_2)"/>
</mask>
<g mask="url(#mask0_6_2)">
<g filter="url(#filter0_f_6_2)">
<rect x="10.8757" y="-24.2914" width="102.312" height="31.3484" transform="rotate(30 10.8757 -24.2914)" fill="#8B8B8B"/>
</g>
</g>
<defs>
<filter id="filter0_f_6_2" x="-33.5985" y="-53.0914" width="161.879" height="135.904" filterUnits="userSpaceOnUse" color-interpolation-filters="sRGB">
<feFlood flood-opacity="0" result="BackgroundImageFix"/>
<feBlend mode="normal" in="SourceGraphic" in2="BackgroundImageFix" result="shape"/>
<feGaussianBlur stdDeviation="14.4" result="effect1_foregroundBlur_6_2"/>
</filter>
<radialGradient id="paint0_radial_6_2" cx="0" cy="0" r="1" gradientUnits="userSpaceOnUse" gradientTransform="translate(88 8.00003) rotate(164.827) scale(61.131 229.241)">
<stop stop-color="#080808"/>
<stop offset="1" stop-color="#080808"/>
</radialGradient>
<radialGradient id="paint1_radial_6_2" cx="0" cy="0" r="1" gradientUnits="userSpaceOnUse" gradientTransform="translate(45 12) rotate(90) scale(12 45)">
<stop stop-color="#080808"/>
<stop offset="1" stop-color="#080808"/>
</radialGradient>
</defs>
</svg>
