<svg width="852" height="862" viewBox="0 0 852 862" fill="none" xmlns="http://www.w3.org/2000/svg">
<g clip-path="url(#clip0_45_2)">
<rect width="852" height="862" fill="#0E0D0D"/>
<g opacity="0.1">
<mask id="path-1-inside-1_45_2" fill="white">
<path d="M-84.0834 -79H170.833V175.917H-84.0834V-79Z"/>
</mask>
<path d="M-84.0834 -79H170.833V175.917H-84.0834V-79Z" fill="url(#paint0_linear_45_2)"/>
<path d="M170.833 175.917V177.349H172.265V175.917H170.833ZM169.401 -79V175.917H172.265V-79H169.401ZM170.833 174.485H-84.0834V177.349H170.833V174.485Z" fill="#52525B" mask="url(#path-1-inside-1_45_2)"/>
<mask id="path-3-inside-2_45_2" fill="white">
<path d="M170.833 -79H425.75V175.917H170.833V-79Z"/>
</mask>
<path d="M170.833 -79H425.75V175.917H170.833V-79Z" fill="url(#paint1_linear_45_2)"/>
<path d="M425.75 175.917V177.349H427.182V175.917H425.75ZM424.318 -79V175.917H427.182V-79H424.318ZM425.75 174.485H170.833V177.349H425.75V174.485Z" fill="#52525B" mask="url(#path-3-inside-2_45_2)"/>
<mask id="path-5-inside-3_45_2" fill="white">
<path d="M425.75 -79H680.667V175.917H425.75V-79Z"/>
</mask>
<path d="M425.75 -79H680.667V175.917H425.75V-79Z" fill="url(#paint2_linear_45_2)"/>
<path d="M680.667 175.917V177.349H682.099V175.917H680.667ZM679.235 -79V175.917H682.099V-79H679.235ZM680.667 174.485H425.75V177.349H680.667V174.485Z" fill="#52525B" mask="url(#path-5-inside-3_45_2)"/>
<mask id="path-7-inside-4_45_2" fill="white">
<path d="M680.667 -79H935.583V175.917H680.667V-79Z"/>
</mask>
<path d="M680.667 -79H935.583V175.917H680.667V-79Z" fill="url(#paint3_linear_45_2)"/>
<path d="M935.583 175.917V177.349H937.015V175.917H935.583ZM934.151 -79V175.917H937.015V-79H934.151ZM935.583 174.485H680.667V177.349H935.583V174.485Z" fill="#52525B" mask="url(#path-7-inside-4_45_2)"/>
<mask id="path-9-inside-5_45_2" fill="white">
<path d="M-84.0834 175.917H170.833V430.833H-84.0834V175.917Z"/>
</mask>
<path d="M-84.0834 175.917H170.833V430.833H-84.0834V175.917Z" fill="url(#paint4_linear_45_2)"/>
<path d="M170.833 430.833V432.266H172.265V430.833H170.833ZM169.401 175.917V430.833H172.265V175.917H169.401ZM170.833 429.401H-84.0834V432.266H170.833V429.401Z" fill="#52525B" mask="url(#path-9-inside-5_45_2)"/>
<mask id="path-11-inside-6_45_2" fill="white">
<path d="M170.833 175.917H425.75V430.833H170.833V175.917Z"/>
</mask>
<path d="M170.833 175.917H425.75V430.833H170.833V175.917Z" fill="url(#paint5_linear_45_2)"/>
<path d="M425.75 430.833V432.266H427.182V430.833H425.75ZM424.318 175.917V430.833H427.182V175.917H424.318ZM425.75 429.401H170.833V432.266H425.75V429.401Z" fill="#52525B" mask="url(#path-11-inside-6_45_2)"/>
<mask id="path-13-inside-7_45_2" fill="white">
<path d="M425.75 175.917H680.667V430.833H425.75V175.917Z"/>
</mask>
<path d="M425.75 175.917H680.667V430.833H425.75V175.917Z" fill="url(#paint6_linear_45_2)"/>
<path d="M680.667 430.833V432.266H682.099V430.833H680.667ZM679.235 175.917V430.833H682.099V175.917H679.235ZM680.667 429.401H425.75V432.266H680.667V429.401Z" fill="#52525B" mask="url(#path-13-inside-7_45_2)"/>
<mask id="path-15-inside-8_45_2" fill="white">
<path d="M680.667 175.917H935.583V430.833H680.667V175.917Z"/>
</mask>
<path d="M680.667 175.917H935.583V430.833H680.667V175.917Z" fill="url(#paint7_linear_45_2)"/>
<path d="M935.583 430.833V432.266H937.015V430.833H935.583ZM934.151 175.917V430.833H937.015V175.917H934.151ZM935.583 429.401H680.667V432.266H935.583V429.401Z" fill="#52525B" mask="url(#path-15-inside-8_45_2)"/>
<mask id="path-17-inside-9_45_2" fill="white">
<path d="M-84.0834 430.833H170.833V685.75H-84.0834V430.833Z"/>
</mask>
<path d="M-84.0834 430.833H170.833V685.75H-84.0834V430.833Z" fill="url(#paint8_linear_45_2)"/>
<path d="M170.833 685.75V687.182H172.265V685.75H170.833ZM169.401 430.833V685.75H172.265V430.833H169.401ZM170.833 684.318H-84.0834V687.182H170.833V684.318Z" fill="#52525B" mask="url(#path-17-inside-9_45_2)"/>
<mask id="path-19-inside-10_45_2" fill="white">
<path d="M170.833 430.833H425.75V685.75H170.833V430.833Z"/>
</mask>
<path d="M170.833 430.833H425.75V685.75H170.833V430.833Z" fill="url(#paint9_linear_45_2)"/>
<path d="M425.75 685.75V687.182H427.182V685.75H425.75ZM424.318 430.833V685.75H427.182V430.833H424.318ZM425.75 684.318H170.833V687.182H425.75V684.318Z" fill="#52525B" mask="url(#path-19-inside-10_45_2)"/>
<mask id="path-21-inside-11_45_2" fill="white">
<path d="M425.75 430.833H680.667V685.75H425.75V430.833Z"/>
</mask>
<path d="M425.75 430.833H680.667V685.75H425.75V430.833Z" fill="url(#paint10_linear_45_2)"/>
<path d="M680.667 685.75V687.182H682.099V685.75H680.667ZM679.235 430.833V685.75H682.099V430.833H679.235ZM680.667 684.318H425.75V687.182H680.667V684.318Z" fill="#52525B" mask="url(#path-21-inside-11_45_2)"/>
<mask id="path-23-inside-12_45_2" fill="white">
<path d="M680.667 430.833H935.583V685.75H680.667V430.833Z"/>
</mask>
<path d="M680.667 430.833H935.583V685.75H680.667V430.833Z" fill="url(#paint11_linear_45_2)"/>
<path d="M935.583 685.75V687.182H937.015V685.75H935.583ZM934.151 430.833V685.75H937.015V430.833H934.151ZM935.583 684.318H680.667V687.182H935.583V684.318Z" fill="#52525B" mask="url(#path-23-inside-12_45_2)"/>
<mask id="path-25-inside-13_45_2" fill="white">
<path d="M-84.0834 685.75H170.833V940.667H-84.0834V685.75Z"/>
</mask>
<path d="M-84.0834 685.75H170.833V940.667H-84.0834V685.75Z" fill="url(#paint12_linear_45_2)"/>
<path d="M170.833 940.667V942.099H172.265V940.667H170.833ZM169.401 685.75V940.667H172.265V685.75H169.401ZM170.833 939.235H-84.0834V942.099H170.833V939.235Z" fill="#52525B" mask="url(#path-25-inside-13_45_2)"/>
<mask id="path-27-inside-14_45_2" fill="white">
<path d="M170.833 685.75H425.75V940.667H170.833V685.75Z"/>
</mask>
<path d="M170.833 685.75H425.75V940.667H170.833V685.75Z" fill="url(#paint13_linear_45_2)"/>
<path d="M425.75 940.667V942.099H427.182V940.667H425.75ZM424.318 685.75V940.667H427.182V685.75H424.318ZM425.75 939.235H170.833V942.099H425.75V939.235Z" fill="#52525B" mask="url(#path-27-inside-14_45_2)"/>
<mask id="path-29-inside-15_45_2" fill="white">
<path d="M425.75 685.75H680.667V940.667H425.75V685.75Z"/>
</mask>
<path d="M425.75 685.75H680.667V940.667H425.75V685.75Z" fill="url(#paint14_linear_45_2)"/>
<path d="M680.667 940.667V942.099H682.099V940.667H680.667ZM679.235 685.75V940.667H682.099V685.75H679.235ZM680.667 939.235H425.75V942.099H680.667V939.235Z" fill="#52525B" mask="url(#path-29-inside-15_45_2)"/>
<mask id="path-31-inside-16_45_2" fill="white">
<path d="M680.667 685.75H935.583V940.667H680.667V685.75Z"/>
</mask>
<path d="M680.667 685.75H935.583V940.667H680.667V685.75Z" fill="url(#paint15_linear_45_2)"/>
<path d="M935.583 940.667V942.099H937.015V940.667H935.583ZM934.151 685.75V940.667H937.015V685.75H934.151ZM935.583 939.235H680.667V942.099H935.583V939.235Z" fill="#52525B" mask="url(#path-31-inside-16_45_2)"/>
</g>
<g opacity="0.65">
<g opacity="0.23" filter="url(#filter0_f_45_2)">
<path d="M577.084 -335.845L708.381 -250.097L215.141 505.143C215.141 505.143 320.284 242.779 292.51 233.316C264.737 223.853 83.8453 419.395 83.8453 419.395L577.084 -335.845Z" fill="url(#paint16_linear_45_2)"/>
</g>
<g opacity="0.23" filter="url(#filter1_f_45_2)">
<path d="M730.074 -322.57L869.397 -231.579L376.158 523.661C376.158 523.661 478.463 259.443 449.234 249.03C420.006 238.617 236.835 432.67 236.835 432.67L730.074 -322.57Z" fill="url(#paint17_linear_45_2)"/>
</g>
</g>
</g>
<defs>
<filter id="filter0_f_45_2" x="-15.7449" y="-435.435" width="823.716" height="1040.17" filterUnits="userSpaceOnUse" color-interpolation-filters="sRGB">
<feFlood flood-opacity="0" result="BackgroundImageFix"/>
<feBlend mode="normal" in="SourceGraphic" in2="BackgroundImageFix" result="shape"/>
<feGaussianBlur stdDeviation="49.7951" result="effect1_foregroundBlur_45_2"/>
</filter>
<filter id="filter1_f_45_2" x="137.245" y="-422.16" width="831.743" height="1045.41" filterUnits="userSpaceOnUse" color-interpolation-filters="sRGB">
<feFlood flood-opacity="0" result="BackgroundImageFix"/>
<feBlend mode="normal" in="SourceGraphic" in2="BackgroundImageFix" result="shape"/>
<feGaussianBlur stdDeviation="49.7951" result="effect1_foregroundBlur_45_2"/>
</filter>
<linearGradient id="paint0_linear_45_2" x1="43.3749" y1="-79" x2="43.3749" y2="175.917" gradientUnits="userSpaceOnUse">
<stop stop-color="#252525"/>
<stop offset="1" stop-color="#616169" stop-opacity="0"/>
</linearGradient>
<linearGradient id="paint1_linear_45_2" x1="298.292" y1="-79" x2="298.292" y2="175.917" gradientUnits="userSpaceOnUse">
<stop/>
<stop offset="1" stop-color="#95959C" stop-opacity="0"/>
</linearGradient>
<linearGradient id="paint2_linear_45_2" x1="553.208" y1="-79" x2="553.208" y2="175.917" gradientUnits="userSpaceOnUse">
<stop stop-color="#252525"/>
<stop offset="1" stop-color="#616169" stop-opacity="0"/>
</linearGradient>
<linearGradient id="paint3_linear_45_2" x1="808.125" y1="-79" x2="808.125" y2="175.917" gradientUnits="userSpaceOnUse">
<stop/>
<stop offset="1" stop-color="#95959C" stop-opacity="0"/>
</linearGradient>
<linearGradient id="paint4_linear_45_2" x1="43.3749" y1="175.917" x2="43.3749" y2="430.833" gradientUnits="userSpaceOnUse">
<stop/>
<stop offset="1" stop-color="#95959C" stop-opacity="0"/>
</linearGradient>
<linearGradient id="paint5_linear_45_2" x1="298.292" y1="175.917" x2="298.292" y2="430.833" gradientUnits="userSpaceOnUse">
<stop stop-color="#252525"/>
<stop offset="1" stop-color="#616169" stop-opacity="0"/>
</linearGradient>
<linearGradient id="paint6_linear_45_2" x1="553.208" y1="175.917" x2="553.208" y2="430.833" gradientUnits="userSpaceOnUse">
<stop/>
<stop offset="1" stop-color="#95959C" stop-opacity="0"/>
</linearGradient>
<linearGradient id="paint7_linear_45_2" x1="808.125" y1="175.917" x2="808.125" y2="430.833" gradientUnits="userSpaceOnUse">
<stop stop-color="#252525"/>
<stop offset="1" stop-color="#616169" stop-opacity="0"/>
</linearGradient>
<linearGradient id="paint8_linear_45_2" x1="43.3749" y1="430.833" x2="43.3749" y2="685.75" gradientUnits="userSpaceOnUse">
<stop stop-color="#252525"/>
<stop offset="1" stop-color="#616169" stop-opacity="0"/>
</linearGradient>
<linearGradient id="paint9_linear_45_2" x1="298.292" y1="430.833" x2="298.292" y2="685.75" gradientUnits="userSpaceOnUse">
<stop/>
<stop offset="1" stop-color="#95959C" stop-opacity="0"/>
</linearGradient>
<linearGradient id="paint10_linear_45_2" x1="553.208" y1="430.833" x2="553.208" y2="685.75" gradientUnits="userSpaceOnUse">
<stop stop-color="#252525"/>
<stop offset="1" stop-color="#616169" stop-opacity="0"/>
</linearGradient>
<linearGradient id="paint11_linear_45_2" x1="808.125" y1="430.833" x2="808.125" y2="685.75" gradientUnits="userSpaceOnUse">
<stop/>
<stop offset="1" stop-color="#95959C" stop-opacity="0"/>
</linearGradient>
<linearGradient id="paint12_linear_45_2" x1="43.3749" y1="685.75" x2="43.3749" y2="940.667" gradientUnits="userSpaceOnUse">
<stop/>
<stop offset="1" stop-color="#95959C" stop-opacity="0"/>
</linearGradient>
<linearGradient id="paint13_linear_45_2" x1="298.292" y1="685.75" x2="298.292" y2="940.667" gradientUnits="userSpaceOnUse">
<stop stop-color="#252525"/>
<stop offset="1" stop-color="#616169" stop-opacity="0"/>
</linearGradient>
<linearGradient id="paint14_linear_45_2" x1="553.208" y1="685.75" x2="553.208" y2="940.667" gradientUnits="userSpaceOnUse">
<stop/>
<stop offset="1" stop-color="#95959C" stop-opacity="0"/>
</linearGradient>
<linearGradient id="paint15_linear_45_2" x1="808.125" y1="685.75" x2="808.125" y2="940.667" gradientUnits="userSpaceOnUse">
<stop stop-color="#252525"/>
<stop offset="1" stop-color="#616169" stop-opacity="0"/>
</linearGradient>
<linearGradient id="paint16_linear_45_2" x1="642.733" y1="-292.971" x2="52.7397" y2="610.417" gradientUnits="userSpaceOnUse">
<stop stop-color="white"/>
<stop offset="1" stop-color="white" stop-opacity="0"/>
</linearGradient>
<linearGradient id="paint17_linear_45_2" x1="799.736" y1="-277.074" x2="209.743" y2="626.314" gradientUnits="userSpaceOnUse">
<stop stop-color="white"/>
<stop offset="1" stop-color="white" stop-opacity="0"/>
</linearGradient>
<clipPath id="clip0_45_2">
<rect width="852" height="862" fill="white"/>
</clipPath>
</defs>
</svg>
